<svg xmlns="http://www.w3.org/2000/svg" xmlns:xlink="http://www.w3.org/1999/xlink" width="1366" zoomAndPan="magnify" viewBox="0 0 1024.5 576" height="768" preserveAspectRatio="xMidYMid meet" version="1.0"><defs><clipPath id="0926d5116f"><path d="M 0 101 L 575 101 L 575 575.859375 L 0 575.859375 Z M 0 101 " clip-rule="nonzero"/></clipPath><clipPath id="538858c5a9"><path d="M -118.078125 555.269531 C -118.390625 537.890625 -115.394531 520.769531 -109.640625 504.183594 C -108.375 500.5625 -108.871094 497.917969 -110.746094 494.722656 C -130.613281 461.070312 -139.792969 424.664062 -135.332031 385.800781 C -128.722656 328.292969 -99.28125 285.691406 -47.96875 258.609375 C -43.804688 256.40625 -41.871094 253.777344 -40.648438 249.414062 C -25.957031 196.753906 4.636719 156.894531 54.898438 133.875 C 92.382812 116.707031 131.175781 115.34375 170.355469 128.046875 C 174.828125 129.496094 178.085938 128.984375 182.035156 126.699219 C 213.878906 108.109375 248.324219 99.003906 285.097656 102.285156 C 344.964844 107.613281 389.257812 137.296875 417.363281 190.601562 C 419.339844 194.351562 421.671875 196.113281 425.691406 197.222656 C 476.550781 211.246094 515.8125 240.25 539.515625 288.050781 C 558.625 326.617188 560.941406 366.859375 547.8125 407.839844 C 546.25 412.714844 546.773438 416.296875 549.289062 420.660156 C 567.207031 451.621094 576.316406 485.074219 573.574219 520.808594 C 568.914062 581.457031 539.472656 626.519531 485.585938 655.195312 C 481.765625 657.226562 479.617188 659.429688 478.441406 663.804688 C 466.21875 708.976562 441.535156 745.46875 401.28125 770.09375 C 359.203125 795.828125 314.199219 800.53125 267.25 785.699219 C 262.761719 784.277344 259.519531 784.800781 255.613281 787.089844 C 223.371094 805.863281 188.527344 814.914062 151.328125 811.375 C 92.242188 805.734375 48.417969 776.289062 20.550781 723.6875 C 18.394531 719.605469 15.835938 717.632812 11.359375 716.382812 C -41.6875 701.503906 -81.546875 670.511719 -104.722656 619.753906 C -114 599.40625 -118.347656 577.890625 -118.078125 555.269531 Z M 167.652344 691.898438 C 167.894531 692.964844 167.910156 693.375 168.082031 693.71875 C 187.859375 731.671875 216.804688 759.851562 256.253906 777.03125 C 260.03125 778.679688 262.5625 777.683594 265.546875 775.582031 C 303.273438 748.949219 328.695312 713.554688 341.640625 669.203125 C 342.238281 667.160156 342.59375 665.042969 343.132812 662.652344 C 311.914062 651.242188 285.441406 633.351562 263.714844 609.851562 C 253.566406 611.726562 244.34375 613.429688 234.78125 615.207031 C 220.003906 647.109375 197.339844 672.488281 167.652344 691.898438 Z M 142.304688 596.535156 C 135.425781 591.988281 128.890625 588.066406 122.820312 583.519531 C 119.382812 580.945312 116.527344 580.550781 112.460938 581.925781 C 90.210938 589.5 67.289062 592.542969 43.828125 590.566406 C 34.691406 589.800781 25.597656 588.476562 16.105469 587.355469 C 15.804688 587.996094 15.28125 588.832031 14.996094 589.757812 C 2.675781 630.226562 3.257812 670.242188 18.960938 709.800781 C 20.226562 712.984375 22.03125 714.71875 25.355469 715.089844 C 34.109375 716.070312 42.820312 717.546875 51.601562 718.015625 C 88.945312 719.992188 123.929688 711.59375 156.527344 693.261719 C 158.046875 692.410156 159.453125 691.359375 161.175781 690.222656 C 147.277344 660.351562 141.222656 629.191406 142.304688 596.535156 Z M 452.394531 514.601562 C 447.175781 516.730469 442.601562 518.734375 437.925781 520.511719 C 415.035156 529.207031 391.304688 533.515625 366.835938 533.398438 C 362.683594 533.386719 360.425781 534.765625 358.25 538.246094 C 354.457031 544.355469 350.109375 550.140625 345.648438 555.796875 C 343.574219 558.425781 342.992188 560.511719 344.097656 563.867188 C 354.117188 593.992188 355.453125 624.683594 349.457031 655.789062 C 349.199219 657.082031 349.425781 658.460938 349.425781 659.867188 C 351.117188 660.421875 352.625 660.964844 354.144531 661.433594 C 377.050781 668.351562 400.457031 670.683594 424.257812 668.421875 C 440.699219 666.859375 456.585938 662.882812 471.917969 656.671875 C 474.800781 655.507812 476.761719 654.070312 476.875 650.730469 C 476.917969 649.550781 477.375 648.386719 477.574219 647.207031 C 483.113281 614.339844 480.429688 582.15625 469.515625 550.664062 C 465.183594 538.144531 459.640625 526.195312 452.394531 514.601562 Z M 63.550781 503.972656 C 61.292969 493.710938 59.148438 484.5625 57.34375 475.339844 C 56.757812 472.339844 55.707031 470.421875 52.851562 468.945312 C 25.527344 454.90625 3.613281 434.753906 -13.679688 409.476562 C -14.558594 408.195312 -15.582031 407.03125 -16.605469 405.738281 C -17.628906 406.09375 -18.425781 406.25 -19.105469 406.621094 C -56.449219 426.542969 -84.417969 455.21875 -101.339844 494.324219 C -102.832031 497.777344 -102.320312 500.191406 -100.289062 503.078125 C -73.105469 541.785156 -36.828125 567.617188 8.757812 580.308594 C 10.050781 580.664062 11.445312 580.664062 13.148438 580.875 C 24.089844 551.050781 41 525.328125 63.550781 503.972656 Z M 454.042969 508.09375 C 455.148438 507.722656 455.761719 507.609375 456.285156 507.339844 C 493.929688 487.472656 521.949219 458.597656 539.03125 419.367188 C 540.550781 415.882812 539.867188 413.46875 537.867188 410.613281 C 510.652344 371.945312 474.417969 346.085938 428.804688 333.4375 C 427.523438 333.082031 426.132812 333.082031 424.570312 332.898438 C 423.660156 335.171875 422.863281 337.203125 422.039062 339.222656 C 421.203125 341.253906 420.363281 343.300781 419.46875 345.304688 C 409.949219 366.746094 397.242188 386.058594 380.84375 402.894531 C 379.167969 404.617188 377.804688 406.050781 378.386719 409.078125 C 380.292969 419.09375 381.824219 429.183594 383.175781 439.289062 C 383.644531 442.785156 384.9375 444.84375 388.148438 446.578125 C 413.457031 460.289062 434.035156 479.304688 450.359375 502.960938 C 451.496094 504.609375 452.691406 506.203125 454.042969 508.09375 Z M -15 398.875 C -14.007812 398.734375 -13.566406 398.773438 -13.222656 398.617188 C 12.226562 386.925781 38.996094 380.898438 66.976562 380.332031 C 69.917969 380.273438 71.027344 378.769531 72.332031 376.535156 C 77.621094 367.585938 82.921875 358.632812 88.648438 349.964844 C 90.792969 346.722656 91.703125 344.136719 90.621094 340.144531 C 84.15625 316.257812 82.792969 292.015625 86.570312 267.53125 C 87.269531 263.054688 87.9375 258.582031 88.589844 254.34375 C 87.667969 253.835938 87.355469 253.578125 86.984375 253.464844 C 46.1875 240.691406 5.800781 241.273438 -34.167969 257.015625 C -37.679688 258.394531 -38.929688 260.65625 -39.542969 264.066406 C -44.527344 291.460938 -43.734375 318.660156 -37.082031 345.6875 C -32.464844 364.445312 -25.230469 382.164062 -15 398.875 Z M 421.402344 326.347656 C 421.542969 326.207031 421.726562 326.078125 421.8125 325.90625 C 422.125 325.183594 422.453125 324.441406 422.679688 323.691406 C 434.828125 283.84375 434.234375 244.425781 419.285156 205.308594 C 417.492188 200.605469 414.695312 198.984375 410.203125 198.230469 C 391.515625 195.117188 372.789062 194.507812 353.945312 196.679688 C 327.941406 199.695312 303.585938 207.679688 280.863281 220.640625 C 279.371094 221.492188 278.007812 222.570312 276.460938 223.625 C 287.882812 248.148438 294.050781 273.484375 295.117188 300.003906 C 295.246094 303.070312 297.105469 304.066406 299.210938 305.257812 C 309.894531 311.285156 319.898438 318.277344 328.851562 326.675781 C 331.210938 328.875 333.242188 329.230469 336.339844 328.421875 C 354.882812 323.535156 373.753906 321.601562 392.894531 323.136719 C 402.261719 323.859375 411.566406 325.210938 421.402344 326.347656 Z M 270.035156 221.605469 C 269.46875 220.226562 269.097656 219.089844 268.542969 218.054688 C 248.933594 181.546875 220.742188 154.207031 182.675781 137.253906 C 178.511719 135.410156 175.496094 135.621094 171.730469 138.308594 C 133.976562 165.234375 108.46875 200.789062 95.75 245.4375 C 95.269531 247.125 95.011719 248.875 94.628906 250.664062 C 95.550781 251.234375 96.179688 251.757812 96.886719 252.03125 C 121.003906 261.050781 142.546875 274.269531 161.5 291.675781 C 163.675781 293.664062 165.566406 293.492188 168.023438 292.65625 C 180.015625 288.578125 192.378906 286.046875 204.984375 285.011719 C 208.550781 284.710938 210.667969 283.617188 212.542969 280.507812 C 225.972656 258.210938 243.707031 239.921875 265.105469 225.144531 C 266.753906 224.023438 268.332031 222.84375 270.035156 221.605469 Z M -43.832031 261.917969 C -132.105469 304.09375 -155.949219 414.078125 -105.773438 493.3125 C -97.148438 473.066406 -85.480469 455.230469 -70.5625 439.585938 C -55.65625 423.957031 -38.417969 411.394531 -18.949219 401.375 C -44.414062 357.90625 -52.273438 311.710938 -43.832031 261.917969 Z M 14.882812 711.933594 C -1.542969 669.984375 -1.855469 628.195312 11.371094 585.722656 C -4.742188 581.570312 -19.660156 575.917969 -33.800781 568.328125 C -47.96875 560.726562 -60.984375 551.488281 -73.078125 540.832031 C -85.097656 530.246094 -95.046875 517.828125 -104.90625 504.726562 C -137.417969 597.316406 -75.804688 692.226562 14.882812 711.933594 Z M 481.265625 652.4375 C 510.425781 637.757812 532.609375 617.523438 548.210938 590.410156 C 567.890625 556.207031 573.488281 519.433594 566.710938 480.753906 C 562.972656 459.394531 555.527344 439.375 543.621094 420.074219 C 525.460938 461.9375 496.058594 491.738281 456.710938 512.414062 C 481.792969 555.9375 490.234375 602.035156 481.265625 652.4375 Z M 274.414062 219.117188 C 295.644531 206.429688 318.039062 198.144531 341.882812 193.867188 C 365.699219 189.605469 389.542969 190.003906 413.757812 194.265625 C 369.179688 100.410156 252.757812 84.90625 182.988281 132.480469 C 223.855469 150.273438 253.679688 179.617188 274.414062 219.117188 Z M 24.160156 719.578125 C 64.886719 808.535156 178.894531 831.382812 254.875 781.363281 C 213.78125 763.558594 183.894531 734.058594 163.21875 694.65625 C 141.933594 707.273438 119.738281 715.558594 96.0625 719.820312 C 72.234375 724.125 48.363281 723.699219 24.160156 719.578125 Z M -36.8125 253.152344 C 5.449219 236.496094 47.421875 236.214844 89.898438 249.371094 C 102.925781 200.632812 129.769531 162.265625 170.695312 133.488281 C 91.488281 103.25 -10.496094 148.835938 -36.8125 253.152344 Z M 542.640625 409.632812 C 551.691406 382.492188 553.867188 356.117188 548.652344 329.261719 C 541.476562 292.285156 523.003906 261.820312 494.398438 237.492188 C 473.679688 219.886719 450.019531 208.019531 422.367188 201.015625 C 430.851562 222.332031 435.128906 243.132812 435.652344 264.71875 C 436.164062 286.246094 432.667969 307.191406 426.246094 328.039062 C 450.246094 334.191406 471.789062 344.011719 491.542969 357.75 C 511.464844 371.621094 528.1875 388.644531 542.640625 409.632812 Z M 347.738281 664.359375 C 343.402344 680.273438 337.902344 695.25 330.316406 709.375 C 322.699219 723.558594 313.476562 736.601562 302.820312 748.695312 C 292.246094 760.703125 279.898438 770.691406 266.738281 780.496094 C 360.253906 813.5625 455.277344 749.761719 473.722656 660.878906 C 432.199219 677.175781 390.378906 677.53125 347.738281 664.359375 Z M 223.640625 427.023438 C 224.023438 427.054688 224.410156 427.082031 224.792969 427.125 C 225.574219 425.320312 226.382812 423.527344 227.152344 421.710938 C 232.410156 409.289062 239.101562 397.722656 247.285156 386.996094 C 257.203125 374.007812 268.828125 362.78125 282.214844 353.402344 C 284.347656 351.910156 286.164062 350.488281 286.789062 347.519531 C 289.40625 335.128906 290.441406 322.597656 291.011719 309.976562 C 291.152344 306.949219 289.988281 305.289062 287.257812 303.996094 C 265.164062 293.535156 241.828125 288.890625 217.488281 288.621094 C 213.976562 288.578125 212.089844 289.925781 210.554688 293.023438 C 204.941406 304.363281 200.464844 316.085938 197.226562 328.351562 C 196.273438 331.972656 196.8125 334.757812 198.644531 337.929688 C 213.507812 363.691406 222.019531 391.34375 223.074219 421.183594 C 223.144531 423.144531 223.441406 425.078125 223.640625 427.023438 Z M 162.9375 299.179688 C 137.828125 308.898438 116.78125 323.734375 99.261719 343.65625 C 97.386719 345.800781 97.199219 347.804688 98.324219 350.21875 C 102.925781 360.210938 107.53125 370.199219 112.09375 380.203125 C 113.882812 384.109375 116.78125 386.058594 121.058594 387.207031 C 150.003906 394.996094 175.652344 408.921875 197.621094 429.441406 C 198.875 430.605469 200.207031 431.65625 201.515625 432.765625 C 201.671875 430.875 201.132812 429.425781 200.605469 427.976562 C 198.703125 422.703125 196.585938 417.503906 194.964844 412.148438 C 187.617188 387.960938 186.125 363.363281 190.53125 338.46875 C 190.957031 336.023438 191.171875 333.921875 189.664062 331.648438 C 181.964844 320.082031 173.367188 309.324219 162.9375 299.179688 Z M 242.910156 439.613281 C 244.046875 439.828125 244.257812 439.925781 244.414062 439.882812 C 245.355469 439.570312 246.304688 439.246094 247.230469 438.863281 C 276.460938 426.710938 306.640625 423.101562 337.847656 428.800781 C 340.433594 429.269531 342.550781 428.929688 344.582031 427.335938 C 353.078125 420.660156 361.546875 413.953125 370.144531 407.402344 C 372.832031 405.355469 372.390625 403.109375 371.523438 400.496094 C 363.765625 376.90625 351.429688 356.074219 334.378906 337.984375 C 331.734375 335.1875 329.40625 334.945312 325.9375 336.179688 C 315.152344 340.015625 304.835938 344.777344 294.902344 350.476562 C 291.523438 352.410156 289.703125 354.824219 288.679688 358.632812 C 280.820312 387.761719 266.882812 413.609375 246.25 435.75 C 245.15625 436.871094 244.1875 438.109375 242.910156 439.613281 Z M 73.910156 384.75 C 73.199219 385.773438 72.761719 386.214844 72.53125 386.738281 C 61.933594 411.550781 58.378906 437.453125 60.328125 464.253906 C 60.523438 467.066406 61.71875 468.644531 64.304688 469.511719 C 73.398438 472.523438 82.492188 475.550781 91.546875 478.691406 C 94.289062 479.644531 96.476562 479.003906 98.878906 477.597656 C 125.636719 461.910156 154.523438 453.457031 185.542969 452.359375 C 186.78125 452.320312 188.015625 452.046875 190.164062 451.75 C 182.007812 447.757812 174.6875 444.589844 167.769531 440.722656 C 146.820312 429.042969 129.386719 413.355469 115.53125 393.746094 C 114.066406 391.671875 112.816406 389.609375 109.777344 388.96875 C 97.984375 386.511719 86.074219 385.347656 73.910156 384.75 Z M 247.484375 461.8125 C 248.59375 462.648438 248.976562 463.089844 249.460938 463.289062 C 279.871094 475.394531 304.539062 494.734375 323.339844 521.578125 C 324.359375 523.027344 326.363281 524.347656 328.097656 524.648438 C 338.117188 526.351562 348.191406 527.746094 358.492188 529.265625 C 372.902344 503.203125 379.550781 476.089844 379.199219 447.132812 C 369.078125 441.859375 358.847656 438.535156 348.445312 435.566406 C 344.382812 434.398438 341.015625 434.785156 337.164062 437.015625 C 313.972656 450.398438 289.050781 458.554688 262.25 460.675781 C 257.574219 461.027344 252.898438 461.398438 247.484375 461.8125 Z M 195.460938 473.320312 C 193.074219 474.058594 191.769531 474.34375 190.558594 474.839844 C 161.175781 487.0625 130.835938 490.742188 99.476562 484.886719 C 96.804688 484.390625 94.800781 485.101562 92.808594 486.59375 C 86.414062 491.394531 79.9375 496.097656 73.640625 501.03125 C 69.121094 504.582031 69.179688 504.753906 71.324219 510.023438 C 81.117188 534.195312 95.75 554.929688 115.445312 572.050781 C 116.613281 573.074219 117.960938 573.871094 119.636719 575.078125 C 126.984375 571.328125 134.21875 567.488281 141.578125 563.9375 C 145.855469 561.863281 148.074219 558.808594 149.324219 554.132812 C 157.097656 525.203125 171.164062 499.679688 191.65625 477.753906 C 192.707031 476.632812 193.671875 475.410156 195.460938 473.320312 Z M 235.890625 480.667969 C 235.664062 480.808594 235.421875 480.964844 235.195312 481.109375 C 235.433594 481.777344 235.675781 482.445312 235.917969 483.113281 C 238.320312 489.691406 241.078125 496.171875 243.050781 502.878906 C 250.015625 526.507812 251.464844 550.539062 247.074219 574.824219 C 246.460938 578.234375 246.972656 581.046875 249.089844 583.789062 C 253.253906 589.175781 257.164062 594.773438 261.355469 600.128906 C 264.820312 604.550781 264.949219 604.492188 270.390625 602.644531 C 294.761719 594.402344 315.847656 580.945312 333.78125 562.53125 C 335.019531 561.265625 336.113281 559.84375 337.789062 557.898438 C 333.753906 549.898438 329.660156 541.910156 325.710938 533.855469 C 323.734375 529.820312 320.78125 527.703125 316.304688 526.496094 C 286.945312 518.566406 261.042969 504.3125 238.917969 483.324219 C 237.949219 482.371094 236.898438 481.535156 235.890625 480.667969 Z M 213.195312 485.898438 C 212.34375 487.816406 211.519531 489.578125 210.765625 491.367188 C 199.300781 518.578125 181.820312 541.144531 157.847656 558.394531 C 153.003906 561.878906 150.390625 565.714844 149.777344 571.453125 C 148.996094 578.757812 147.886719 586.035156 146.921875 593.367188 C 174.121094 607.136719 202.097656 612.71875 232.378906 610.433594 C 235.039062 602.121094 237.59375 593.921875 240.265625 585.765625 C 241.472656 582.070312 240.820312 578.972656 238.832031 575.574219 C 229.339844 559.40625 222.261719 542.167969 218.652344 523.765625 C 216.238281 511.433594 215.03125 498.855469 213.195312 485.898438 Z M 146.9375 598.523438 C 145.914062 630.242188 152.039062 659.511719 164.984375 687.535156 C 188.101562 675.941406 225.246094 633.695312 228.429688 615.363281 C 200.125 616.699219 173.210938 611 146.9375 598.523438 Z M 339.367188 563.796875 C 333.640625 568.953125 328.625 573.84375 323.210938 578.234375 C 317.925781 582.511719 312.410156 586.574219 306.65625 590.183594 C 300.730469 593.90625 294.519531 597.21875 288.210938 600.230469 C 282.015625 603.199219 275.550781 605.574219 268.628906 608.457031 C 290.257812 631.109375 314.925781 647.492188 344.3125 658.164062 C 351.046875 625.933594 349.796875 594.902344 339.367188 563.796875 Z M 17.695312 581.8125 C 41.8125 590.097656 97.683594 586.558594 113.003906 575.929688 C 91.757812 557.472656 76.199219 535.035156 65.742188 508.21875 C 43.8125 529.378906 28.113281 553.5625 17.695312 581.8125 Z M 364.164062 528.355469 C 386.8125 530.628906 427.953125 522.359375 449.109375 510.410156 C 441.210938 491.75 401.125 454.761719 383.871094 450.414062 C 383.246094 477.65625 377.179688 503.558594 364.164062 528.355469 Z M 68.210938 385.261719 C 47.496094 383.273438 -0.0234375 394.570312 -11.519531 403.890625 C 1.097656 426.78125 40.320312 461.996094 55.820312 464.042969 C 53.734375 437.015625 57.753906 410.925781 68.210938 385.261719 Z M 376.496094 401.050781 C 396.261719 380.429688 410.515625 357.863281 420.09375 331.433594 C 391.816406 325.296875 364.332031 325.664062 336.027344 333.238281 C 345.519531 343.355469 353.519531 353.546875 360.183594 364.726562 C 366.847656 375.867188 371.894531 387.761719 376.496094 401.050781 Z M 158.472656 296.050781 C 148.214844 282.652344 108.257812 258.453125 93.507812 256.433594 C 86.445312 279.9375 88.40625 325.421875 95.90625 339.136719 C 105.527344 330.964844 114.976562 322.367188 125.023438 314.523438 C 135.097656 306.667969 146.609375 301.066406 158.472656 296.050781 Z M 216.25 283.050781 C 229.324219 284.8125 241.902344 285.707031 254.09375 288.378906 C 266.285156 291.0625 278.09375 295.527344 290.015625 299.191406 C 292.019531 284.796875 281.886719 241.058594 271.757812 226.167969 C 249.035156 241.046875 230.433594 259.757812 216.25 283.050781 Z M 195.546875 341.382812 C 186.28125 366.960938 199.484375 430.902344 217.515625 448.3125 C 221.949219 410.085938 214.019531 375.117188 195.546875 341.382812 Z M 154.324219 554.957031 C 181.140625 539.15625 215.753906 486.054688 213.539062 464.539062 C 189.351562 479.601562 158.003906 527.234375 154.324219 554.957031 Z M 334.691406 433.40625 C 304.90625 424.9375 240.992188 438.394531 227.535156 455.65625 C 265.433594 459.992188 300.515625 452.121094 334.691406 433.40625 Z M 209.859375 458.839844 C 172.058594 453.710938 137.003906 461.667969 104.191406 480.484375 C 142.160156 486.804688 177.375 479.503906 209.859375 458.839844 Z M 316.644531 521.308594 C 294.265625 490.03125 264.28125 470.25 226.710938 461.925781 C 249.773438 492.164062 280.113281 511.417969 316.644531 521.308594 Z M 283.578125 358.703125 C 257.519531 373.125 225.714844 421.398438 223.667969 449.164062 C 245.339844 438.335938 277.242188 390.40625 283.578125 358.703125 Z M 120.304688 391.558594 C 135.128906 418.257812 190.800781 454.5625 211.632812 451.410156 C 187.875 421.667969 157.59375 402.355469 120.304688 391.558594 Z M 242.199219 571.46875 C 250.085938 540.007812 237.679688 481.078125 220.089844 465.5625 C 215.769531 503.546875 223.5 538.585938 242.199219 571.46875 Z M 192.292969 326.445312 C 196.996094 314.183594 201.617188 302.121094 206.460938 289.5 C 193.386719 290.183594 180.925781 293.011719 168.378906 297.273438 C 176.507812 307.207031 184.320312 316.726562 192.292969 326.445312 Z M 292.332031 345.984375 C 303.699219 340.8125 314.8125 335.753906 326.507812 330.441406 C 317.042969 321.929688 307.222656 314.722656 295.96875 308.628906 C 294.703125 321.558594 293.527344 333.707031 292.332031 345.984375 Z M 93.136719 351.1875 C 86.386719 360.210938 80.488281 369.359375 75.6875 379.90625 C 87.027344 381.167969 97.414062 382.335938 108.070312 383.527344 C 103.054688 372.699219 98.238281 362.269531 93.136719 351.1875 Z M 378.871094 441.164062 C 378.332031 430.421875 377.007812 420.503906 374.082031 410.414062 C 365.398438 417.320312 357.242188 423.828125 348.816406 430.519531 C 358.90625 434.085938 368.410156 437.453125 378.871094 441.164062 Z M 67.386719 500.136719 C 71.976562 496.484375 75.472656 493.839844 78.785156 490.996094 C 81.941406 488.3125 86.074219 486.679688 88.433594 482.984375 C 79.394531 479.886719 70.8125 476.945312 61.136719 473.617188 C 63.28125 482.726562 65.230469 490.957031 67.386719 500.136719 Z M 356.519531 533.472656 C 346.855469 532.25 338.359375 531.183594 329.164062 530.019531 C 333.300781 538.375 337.09375 546.003906 341.34375 554.585938 C 346.429688 547.496094 351.132812 540.945312 356.519531 533.472656 Z M 145.742188 567.121094 C 138.011719 571.015625 131.050781 574.539062 123.347656 578.429688 C 129.757812 583.292969 135.609375 587.355469 142.601562 590.808594 C 143.695312 582.550781 144.664062 575.21875 145.742188 567.121094 Z M 237.425781 609.777344 C 245.3125 609.222656 252.332031 607.945312 259.71875 605.574219 C 256.933594 601.976562 254.617188 599.023438 252.332031 596.039062 C 250.015625 592.996094 247.726562 589.914062 245.097656 586.390625 C 242.425781 594.558594 240.082031 601.707031 237.425781 609.777344 Z M 237.425781 609.777344 " clip-rule="nonzero"/></clipPath><linearGradient x1="142.905342" gradientTransform="matrix(1.420994, 0, 0, 1.420994, -136.438798, 101.631316)" y1="374.166204" x2="486.76028" gradientUnits="userSpaceOnUse" y2="-24.558908" id="47ce0e7873"><stop stop-opacity="1" stop-color="rgb(79.598999%, 42.399597%, 90.19928%)" offset="0"/><stop stop-opacity="1" stop-color="rgb(79.598999%, 42.399597%, 90.19928%)" offset="0.125"/><stop stop-opacity="1" stop-color="rgb(79.296875%, 42.237854%, 89.857483%)" offset="0.128906"/><stop stop-opacity="1" stop-color="rgb(78.996277%, 42.077637%, 89.517212%)" offset="0.132812"/><stop stop-opacity="1" stop-color="rgb(78.485107%, 41.804504%, 88.937378%)" offset="0.136719"/><stop stop-opacity="1" stop-color="rgb(77.973938%, 41.532898%, 88.357544%)" offset="0.140625"/><stop stop-opacity="1" stop-color="rgb(77.461243%, 41.259766%, 87.77771%)" offset="0.144531"/><stop stop-opacity="1" stop-color="rgb(76.950073%, 40.988159%, 87.197876%)" offset="0.148438"/><stop stop-opacity="1" stop-color="rgb(76.438904%, 40.715027%, 86.618042%)" offset="0.152344"/><stop stop-opacity="1" stop-color="rgb(75.927734%, 40.44342%, 86.038208%)" offset="0.15625"/><stop stop-opacity="1" stop-color="rgb(75.415039%, 40.170288%, 85.458374%)" offset="0.160156"/><stop stop-opacity="1" stop-color="rgb(74.90387%, 39.898682%, 84.87854%)" offset="0.164063"/><stop stop-opacity="1" stop-color="rgb(74.3927%, 39.625549%, 84.298706%)" offset="0.167969"/><stop stop-opacity="1" stop-color="rgb(73.881531%, 39.353943%, 83.718872%)" offset="0.171875"/><stop stop-opacity="1" stop-color="rgb(73.368835%, 39.080811%, 83.139038%)" offset="0.175781"/><stop stop-opacity="1" stop-color="rgb(72.857666%, 38.807678%, 82.559204%)" offset="0.179687"/><stop stop-opacity="1" stop-color="rgb(72.344971%, 38.534546%, 81.97937%)" offset="0.183594"/><stop stop-opacity="1" stop-color="rgb(71.833801%, 38.262939%, 81.401062%)" offset="0.1875"/><stop stop-opacity="1" stop-color="rgb(71.322632%, 37.989807%, 80.821228%)" offset="0.191406"/><stop stop-opacity="1" stop-color="rgb(70.811462%, 37.718201%, 80.241394%)" offset="0.195312"/><stop stop-opacity="1" stop-color="rgb(70.298767%, 37.445068%, 79.66156%)" offset="0.199219"/><stop stop-opacity="1" stop-color="rgb(69.787598%, 37.173462%, 79.081726%)" offset="0.203125"/><stop stop-opacity="1" stop-color="rgb(69.276428%, 36.90033%, 78.501892%)" offset="0.207031"/><stop stop-opacity="1" stop-color="rgb(68.765259%, 36.628723%, 77.922058%)" offset="0.210938"/><stop stop-opacity="1" stop-color="rgb(68.252563%, 36.355591%, 77.342224%)" offset="0.214844"/><stop stop-opacity="1" stop-color="rgb(67.741394%, 36.082458%, 76.76239%)" offset="0.21875"/><stop stop-opacity="1" stop-color="rgb(67.230225%, 35.809326%, 76.182556%)" offset="0.222656"/><stop stop-opacity="1" stop-color="rgb(66.719055%, 35.53772%, 75.602722%)" offset="0.226562"/><stop stop-opacity="1" stop-color="rgb(66.20636%, 35.264587%, 75.022888%)" offset="0.230469"/><stop stop-opacity="1" stop-color="rgb(65.69519%, 34.992981%, 74.443054%)" offset="0.234375"/><stop stop-opacity="1" stop-color="rgb(65.182495%, 34.719849%, 73.86322%)" offset="0.238281"/><stop stop-opacity="1" stop-color="rgb(64.671326%, 34.448242%, 73.284912%)" offset="0.242188"/><stop stop-opacity="1" stop-color="rgb(64.160156%, 34.17511%, 72.705078%)" offset="0.246094"/><stop stop-opacity="1" stop-color="rgb(63.648987%, 33.903503%, 72.125244%)" offset="0.25"/><stop stop-opacity="1" stop-color="rgb(63.136292%, 33.630371%, 71.54541%)" offset="0.253906"/><stop stop-opacity="1" stop-color="rgb(62.625122%, 33.357239%, 70.965576%)" offset="0.257812"/><stop stop-opacity="1" stop-color="rgb(62.113953%, 33.084106%, 70.385742%)" offset="0.261719"/><stop stop-opacity="1" stop-color="rgb(61.602783%, 32.8125%, 69.805908%)" offset="0.265625"/><stop stop-opacity="1" stop-color="rgb(61.090088%, 32.539368%, 69.226074%)" offset="0.269531"/><stop stop-opacity="1" stop-color="rgb(60.578918%, 32.267761%, 68.64624%)" offset="0.273437"/><stop stop-opacity="1" stop-color="rgb(60.067749%, 31.994629%, 68.066406%)" offset="0.277344"/><stop stop-opacity="1" stop-color="rgb(59.55658%, 31.723022%, 67.486572%)" offset="0.28125"/><stop stop-opacity="1" stop-color="rgb(59.043884%, 31.44989%, 66.906738%)" offset="0.285156"/><stop stop-opacity="1" stop-color="rgb(58.532715%, 31.178284%, 66.326904%)" offset="0.289062"/><stop stop-opacity="1" stop-color="rgb(58.02002%, 30.905151%, 65.74707%)" offset="0.292969"/><stop stop-opacity="1" stop-color="rgb(57.50885%, 30.633545%, 65.167236%)" offset="0.296875"/><stop stop-opacity="1" stop-color="rgb(56.997681%, 30.360413%, 64.587402%)" offset="0.300781"/><stop stop-opacity="1" stop-color="rgb(56.486511%, 30.08728%, 64.009094%)" offset="0.304688"/><stop stop-opacity="1" stop-color="rgb(55.973816%, 29.814148%, 63.42926%)" offset="0.308594"/><stop stop-opacity="1" stop-color="rgb(55.462646%, 29.542542%, 62.849426%)" offset="0.3125"/><stop stop-opacity="1" stop-color="rgb(54.951477%, 29.269409%, 62.269592%)" offset="0.316406"/><stop stop-opacity="1" stop-color="rgb(54.440308%, 28.997803%, 61.689758%)" offset="0.320312"/><stop stop-opacity="1" stop-color="rgb(53.927612%, 28.72467%, 61.109924%)" offset="0.324219"/><stop stop-opacity="1" stop-color="rgb(53.416443%, 28.453064%, 60.53009%)" offset="0.328125"/><stop stop-opacity="1" stop-color="rgb(52.905273%, 28.179932%, 59.950256%)" offset="0.332031"/><stop stop-opacity="1" stop-color="rgb(52.394104%, 27.908325%, 59.370422%)" offset="0.335937"/><stop stop-opacity="1" stop-color="rgb(51.881409%, 27.635193%, 58.790588%)" offset="0.339844"/><stop stop-opacity="1" stop-color="rgb(51.370239%, 27.362061%, 58.210754%)" offset="0.34375"/><stop stop-opacity="1" stop-color="rgb(50.857544%, 27.088928%, 57.63092%)" offset="0.347656"/><stop stop-opacity="1" stop-color="rgb(50.346375%, 26.817322%, 57.051086%)" offset="0.351562"/><stop stop-opacity="1" stop-color="rgb(49.835205%, 26.544189%, 56.471252%)" offset="0.355469"/><stop stop-opacity="1" stop-color="rgb(49.324036%, 26.272583%, 55.892944%)" offset="0.359375"/><stop stop-opacity="1" stop-color="rgb(48.81134%, 25.999451%, 55.31311%)" offset="0.363281"/><stop stop-opacity="1" stop-color="rgb(48.300171%, 25.727844%, 54.733276%)" offset="0.367187"/><stop stop-opacity="1" stop-color="rgb(47.789001%, 25.454712%, 54.153442%)" offset="0.371094"/><stop stop-opacity="1" stop-color="rgb(47.277832%, 25.183105%, 53.573608%)" offset="0.375"/><stop stop-opacity="1" stop-color="rgb(46.765137%, 24.909973%, 52.993774%)" offset="0.378906"/><stop stop-opacity="1" stop-color="rgb(46.253967%, 24.636841%, 52.41394%)" offset="0.382812"/><stop stop-opacity="1" stop-color="rgb(45.742798%, 24.363708%, 51.834106%)" offset="0.386719"/><stop stop-opacity="1" stop-color="rgb(45.231628%, 24.092102%, 51.254272%)" offset="0.390625"/><stop stop-opacity="1" stop-color="rgb(44.718933%, 23.81897%, 50.674438%)" offset="0.394531"/><stop stop-opacity="1" stop-color="rgb(44.207764%, 23.547363%, 50.094604%)" offset="0.398437"/><stop stop-opacity="1" stop-color="rgb(43.695068%, 23.274231%, 49.514771%)" offset="0.402344"/><stop stop-opacity="1" stop-color="rgb(43.183899%, 23.002625%, 48.934937%)" offset="0.40625"/><stop stop-opacity="1" stop-color="rgb(42.672729%, 22.729492%, 48.355103%)" offset="0.410156"/><stop stop-opacity="1" stop-color="rgb(42.16156%, 22.457886%, 47.775269%)" offset="0.414062"/><stop stop-opacity="1" stop-color="rgb(41.648865%, 22.184753%, 47.195435%)" offset="0.417969"/><stop stop-opacity="1" stop-color="rgb(41.137695%, 21.913147%, 46.617126%)" offset="0.421875"/><stop stop-opacity="1" stop-color="rgb(40.626526%, 21.640015%, 46.037292%)" offset="0.425781"/><stop stop-opacity="1" stop-color="rgb(40.115356%, 21.366882%, 45.457458%)" offset="0.429687"/><stop stop-opacity="1" stop-color="rgb(39.602661%, 21.09375%, 44.877625%)" offset="0.433594"/><stop stop-opacity="1" stop-color="rgb(39.091492%, 20.822144%, 44.297791%)" offset="0.4375"/><stop stop-opacity="1" stop-color="rgb(38.580322%, 20.549011%, 43.717957%)" offset="0.441406"/><stop stop-opacity="1" stop-color="rgb(38.069153%, 20.277405%, 43.138123%)" offset="0.445312"/><stop stop-opacity="1" stop-color="rgb(37.556458%, 20.004272%, 42.558289%)" offset="0.449219"/><stop stop-opacity="1" stop-color="rgb(37.045288%, 19.732666%, 41.978455%)" offset="0.453125"/><stop stop-opacity="1" stop-color="rgb(36.532593%, 19.459534%, 41.398621%)" offset="0.457031"/><stop stop-opacity="1" stop-color="rgb(36.021423%, 19.187927%, 40.818787%)" offset="0.460937"/><stop stop-opacity="1" stop-color="rgb(35.510254%, 18.914795%, 40.238953%)" offset="0.464844"/><stop stop-opacity="1" stop-color="rgb(34.999084%, 18.641663%, 39.659119%)" offset="0.46875"/><stop stop-opacity="1" stop-color="rgb(34.486389%, 18.36853%, 39.079285%)" offset="0.472656"/><stop stop-opacity="1" stop-color="rgb(33.97522%, 18.096924%, 38.500977%)" offset="0.476562"/><stop stop-opacity="1" stop-color="rgb(33.46405%, 17.823792%, 37.921143%)" offset="0.480469"/><stop stop-opacity="1" stop-color="rgb(32.952881%, 17.552185%, 37.341309%)" offset="0.484375"/><stop stop-opacity="1" stop-color="rgb(32.440186%, 17.279053%, 36.761475%)" offset="0.488281"/><stop stop-opacity="1" stop-color="rgb(31.929016%, 17.007446%, 36.181641%)" offset="0.492187"/><stop stop-opacity="1" stop-color="rgb(31.417847%, 16.734314%, 35.601807%)" offset="0.496094"/><stop stop-opacity="1" stop-color="rgb(30.906677%, 16.462708%, 35.021973%)" offset="0.5"/><stop stop-opacity="1" stop-color="rgb(30.393982%, 16.189575%, 34.442139%)" offset="0.503906"/><stop stop-opacity="1" stop-color="rgb(29.882812%, 15.916443%, 33.862305%)" offset="0.507812"/><stop stop-opacity="1" stop-color="rgb(29.371643%, 15.643311%, 33.282471%)" offset="0.511719"/><stop stop-opacity="1" stop-color="rgb(28.860474%, 15.371704%, 32.702637%)" offset="0.515625"/><stop stop-opacity="1" stop-color="rgb(28.347778%, 15.098572%, 32.122803%)" offset="0.519531"/><stop stop-opacity="1" stop-color="rgb(27.836609%, 14.826965%, 31.542969%)" offset="0.523437"/><stop stop-opacity="1" stop-color="rgb(27.323914%, 14.553833%, 30.963135%)" offset="0.527344"/><stop stop-opacity="1" stop-color="rgb(26.812744%, 14.282227%, 30.383301%)" offset="0.53125"/><stop stop-opacity="1" stop-color="rgb(26.301575%, 14.009094%, 29.803467%)" offset="0.535156"/><stop stop-opacity="1" stop-color="rgb(25.790405%, 13.737488%, 29.225159%)" offset="0.539062"/><stop stop-opacity="1" stop-color="rgb(25.27771%, 13.464355%, 28.645325%)" offset="0.542969"/><stop stop-opacity="1" stop-color="rgb(24.766541%, 13.192749%, 28.065491%)" offset="0.546875"/><stop stop-opacity="1" stop-color="rgb(24.255371%, 12.919617%, 27.485657%)" offset="0.550781"/><stop stop-opacity="1" stop-color="rgb(23.744202%, 12.646484%, 26.905823%)" offset="0.554687"/><stop stop-opacity="1" stop-color="rgb(23.231506%, 12.373352%, 26.325989%)" offset="0.558594"/><stop stop-opacity="1" stop-color="rgb(22.720337%, 12.101746%, 25.746155%)" offset="0.5625"/><stop stop-opacity="1" stop-color="rgb(22.209167%, 11.828613%, 25.166321%)" offset="0.566406"/><stop stop-opacity="1" stop-color="rgb(21.697998%, 11.557007%, 24.586487%)" offset="0.570312"/><stop stop-opacity="1" stop-color="rgb(21.185303%, 11.283875%, 24.006653%)" offset="0.574219"/><stop stop-opacity="1" stop-color="rgb(20.674133%, 11.012268%, 23.426819%)" offset="0.578125"/><stop stop-opacity="1" stop-color="rgb(20.161438%, 10.739136%, 22.846985%)" offset="0.582031"/><stop stop-opacity="1" stop-color="rgb(19.650269%, 10.467529%, 22.267151%)" offset="0.585938"/><stop stop-opacity="1" stop-color="rgb(19.139099%, 10.194397%, 21.687317%)" offset="0.589844"/><stop stop-opacity="1" stop-color="rgb(18.62793%, 9.921265%, 21.109009%)" offset="0.59375"/><stop stop-opacity="1" stop-color="rgb(18.115234%, 9.648132%, 20.529175%)" offset="0.597656"/><stop stop-opacity="1" stop-color="rgb(17.604065%, 9.376526%, 19.949341%)" offset="0.601562"/><stop stop-opacity="1" stop-color="rgb(17.092896%, 9.103394%, 19.369507%)" offset="0.605469"/><stop stop-opacity="1" stop-color="rgb(16.581726%, 8.831787%, 18.789673%)" offset="0.609375"/><stop stop-opacity="1" stop-color="rgb(16.069031%, 8.558655%, 18.209839%)" offset="0.613281"/><stop stop-opacity="1" stop-color="rgb(15.557861%, 8.287048%, 17.630005%)" offset="0.617187"/><stop stop-opacity="1" stop-color="rgb(15.046692%, 8.013916%, 17.050171%)" offset="0.621094"/><stop stop-opacity="1" stop-color="rgb(14.535522%, 7.74231%, 16.470337%)" offset="0.625"/><stop stop-opacity="1" stop-color="rgb(14.022827%, 7.469177%, 15.890503%)" offset="0.628906"/><stop stop-opacity="1" stop-color="rgb(13.511658%, 7.196045%, 15.310669%)" offset="0.632812"/><stop stop-opacity="1" stop-color="rgb(12.998962%, 6.922913%, 14.730835%)" offset="0.636719"/><stop stop-opacity="1" stop-color="rgb(12.487793%, 6.651306%, 14.151001%)" offset="0.640625"/><stop stop-opacity="1" stop-color="rgb(11.976624%, 6.378174%, 13.571167%)" offset="0.644531"/><stop stop-opacity="1" stop-color="rgb(11.465454%, 6.106567%, 12.991333%)" offset="0.648437"/><stop stop-opacity="1" stop-color="rgb(10.952759%, 5.833435%, 12.411499%)" offset="0.652344"/><stop stop-opacity="1" stop-color="rgb(10.441589%, 5.561829%, 11.833191%)" offset="0.65625"/><stop stop-opacity="1" stop-color="rgb(9.93042%, 5.288696%, 11.253357%)" offset="0.660156"/><stop stop-opacity="1" stop-color="rgb(9.41925%, 5.01709%, 10.673523%)" offset="0.664062"/><stop stop-opacity="1" stop-color="rgb(8.906555%, 4.743958%, 10.093689%)" offset="0.667969"/><stop stop-opacity="1" stop-color="rgb(8.395386%, 4.472351%, 9.513855%)" offset="0.671875"/><stop stop-opacity="1" stop-color="rgb(7.884216%, 4.199219%, 8.934021%)" offset="0.675781"/><stop stop-opacity="1" stop-color="rgb(7.373047%, 3.926086%, 8.354187%)" offset="0.679688"/><stop stop-opacity="1" stop-color="rgb(6.860352%, 3.652954%, 7.774353%)" offset="0.683594"/><stop stop-opacity="1" stop-color="rgb(6.349182%, 3.381348%, 7.194519%)" offset="0.6875"/><stop stop-opacity="1" stop-color="rgb(5.836487%, 3.108215%, 6.614685%)" offset="0.691406"/><stop stop-opacity="1" stop-color="rgb(5.325317%, 2.836609%, 6.034851%)" offset="0.695312"/><stop stop-opacity="1" stop-color="rgb(4.814148%, 2.563477%, 5.455017%)" offset="0.699219"/><stop stop-opacity="1" stop-color="rgb(4.302979%, 2.29187%, 4.875183%)" offset="0.703125"/><stop stop-opacity="1" stop-color="rgb(3.790283%, 2.018738%, 4.295349%)" offset="0.707031"/><stop stop-opacity="1" stop-color="rgb(3.279114%, 1.747131%, 3.717041%)" offset="0.710937"/><stop stop-opacity="1" stop-color="rgb(2.767944%, 1.473999%, 3.137207%)" offset="0.714844"/><stop stop-opacity="1" stop-color="rgb(2.256775%, 1.200867%, 2.557373%)" offset="0.71875"/><stop stop-opacity="1" stop-color="rgb(1.74408%, 0.927734%, 1.977539%)" offset="0.722656"/><stop stop-opacity="1" stop-color="rgb(1.23291%, 0.656128%, 1.397705%)" offset="0.726562"/><stop stop-opacity="1" stop-color="rgb(0.721741%, 0.382996%, 0.817871%)" offset="0.730469"/><stop stop-opacity="1" stop-color="rgb(0.210571%, 0.111389%, 0.238037%)" offset="0.734375"/><stop stop-opacity="1" stop-color="rgb(0.105286%, 0.0549316%, 0.119019%)" offset="0.75"/><stop stop-opacity="1" stop-color="rgb(0%, 0%, 0%)" offset="1"/></linearGradient></defs><g clip-path="url(#0926d5116f)"><g clip-path="url(#538858c5a9)"><path fill="url(#47ce0e7873)" d="M 0 84.90625 L 0 575.859375 L 576.316406 575.859375 L 576.316406 84.90625 Z M 0 84.90625 " fill-rule="nonzero"/></g></g></svg>