<svg xmlns="http://www.w3.org/2000/svg" xmlns:xlink="http://www.w3.org/1999/xlink" width="500" zoomAndPan="magnify" viewBox="0 0 375 374.999991" height="500" preserveAspectRatio="xMidYMid meet" version="1.0"><defs><g/><clipPath id="ceb3be3081"><path d="M 34.800781 261.914062 L 187.5 261.914062 L 187.5 270.769531 L 34.800781 270.769531 Z M 34.800781 261.914062 " clip-rule="nonzero"/></clipPath></defs><g fill="#2e2e2e" fill-opacity="0.302"><g transform="translate(74.677059, 260.232475)"><g><path d="M 81.65625 0 L 65.890625 0 L 28.8125 -52.375 L 42.921875 -52.375 C 46.523438 -52.375 49.726562 -52.628906 52.53125 -53.140625 C 55.226562 -53.535156 57.332031 -54.035156 58.84375 -54.640625 C 61.9375 -56.035156 64.382812 -58.082031 66.1875 -60.78125 C 67.988281 -63.382812 68.890625 -66.085938 68.890625 -68.890625 C 68.890625 -71.691406 68.039062 -74.34375 66.34375 -76.84375 C 64.644531 -79.25 62.191406 -81.253906 58.984375 -82.859375 C 55.785156 -84.359375 52.082031 -85.109375 47.875 -85.109375 L 25.21875 -85.109375 L 25.515625 0 L 12.765625 0 L 12.765625 -97.71875 L 47.875 -97.71875 C 52.582031 -97.71875 56.988281 -96.960938 61.09375 -95.453125 C 65.1875 -93.953125 68.785156 -91.800781 71.890625 -89 C 74.890625 -86.300781 77.242188 -83.203125 78.953125 -79.703125 C 80.546875 -76.203125 81.34375 -72.597656 81.34375 -68.890625 C 81.34375 -62.984375 79.546875 -57.679688 75.953125 -52.984375 C 72.941406 -48.984375 68.890625 -45.734375 63.796875 -43.234375 C 59.890625 -41.828125 56.4375 -41.125 53.4375 -41.125 Z M 81.65625 0 "/></g></g></g><g fill="#2e2e2e" fill-opacity="0.502"><g transform="translate(68.043636, 253.599048)"><g><path d="M 81.65625 0 L 65.890625 0 L 28.8125 -52.375 L 42.921875 -52.375 C 46.523438 -52.375 49.726562 -52.628906 52.53125 -53.140625 C 55.226562 -53.535156 57.332031 -54.035156 58.84375 -54.640625 C 61.9375 -56.035156 64.382812 -58.082031 66.1875 -60.78125 C 67.988281 -63.382812 68.890625 -66.085938 68.890625 -68.890625 C 68.890625 -71.691406 68.039062 -74.34375 66.34375 -76.84375 C 64.644531 -79.25 62.191406 -81.253906 58.984375 -82.859375 C 55.785156 -84.359375 52.082031 -85.109375 47.875 -85.109375 L 25.21875 -85.109375 L 25.515625 0 L 12.765625 0 L 12.765625 -97.71875 L 47.875 -97.71875 C 52.582031 -97.71875 56.988281 -96.960938 61.09375 -95.453125 C 65.1875 -93.953125 68.785156 -91.800781 71.890625 -89 C 74.890625 -86.300781 77.242188 -83.203125 78.953125 -79.703125 C 80.546875 -76.203125 81.34375 -72.597656 81.34375 -68.890625 C 81.34375 -62.984375 79.546875 -57.679688 75.953125 -52.984375 C 72.941406 -48.984375 68.890625 -45.734375 63.796875 -43.234375 C 59.890625 -41.828125 56.4375 -41.125 53.4375 -41.125 Z M 81.65625 0 "/></g></g></g><g fill="#2e2e2e" fill-opacity="1"><g transform="translate(61.410212, 246.965621)"><g><path d="M 81.65625 0 L 65.890625 0 L 28.8125 -52.375 L 42.921875 -52.375 C 46.523438 -52.375 49.726562 -52.628906 52.53125 -53.140625 C 55.226562 -53.535156 57.332031 -54.035156 58.84375 -54.640625 C 61.9375 -56.035156 64.382812 -58.082031 66.1875 -60.78125 C 67.988281 -63.382812 68.890625 -66.085938 68.890625 -68.890625 C 68.890625 -71.691406 68.039062 -74.34375 66.34375 -76.84375 C 64.644531 -79.25 62.191406 -81.253906 58.984375 -82.859375 C 55.785156 -84.359375 52.082031 -85.109375 47.875 -85.109375 L 25.21875 -85.109375 L 25.515625 0 L 12.765625 0 L 12.765625 -97.71875 L 47.875 -97.71875 C 52.582031 -97.71875 56.988281 -96.960938 61.09375 -95.453125 C 65.1875 -93.953125 68.785156 -91.800781 71.890625 -89 C 74.890625 -86.300781 77.242188 -83.203125 78.953125 -79.703125 C 80.546875 -76.203125 81.34375 -72.597656 81.34375 -68.890625 C 81.34375 -62.984375 79.546875 -57.679688 75.953125 -52.984375 C 72.941406 -48.984375 68.890625 -45.734375 63.796875 -43.234375 C 59.890625 -41.828125 56.4375 -41.125 53.4375 -41.125 Z M 81.65625 0 "/></g></g></g><g fill="#2e2e2e" fill-opacity="0.302"><g transform="translate(152.575525, 260.232475)"><g><path d="M 25.671875 -42.625 L 25.671875 0 L 12.90625 0 L 12.90625 -97.71875 L 25.671875 -97.71875 L 25.671875 -55.234375 L 73.390625 -55.234375 L 73.390625 -97.71875 L 86 -97.71875 L 86 0 L 73.546875 0 L 73.390625 -42.625 Z M 25.671875 -42.625 "/></g></g></g><g fill="#2e2e2e" fill-opacity="0.502"><g transform="translate(145.942101, 253.599048)"><g><path d="M 25.671875 -42.625 L 25.671875 0 L 12.90625 0 L 12.90625 -97.71875 L 25.671875 -97.71875 L 25.671875 -55.234375 L 73.390625 -55.234375 L 73.390625 -97.71875 L 86 -97.71875 L 86 0 L 73.546875 0 L 73.390625 -42.625 Z M 25.671875 -42.625 "/></g></g></g><g fill="#cb6ce6" fill-opacity="1"><g transform="translate(139.308677, 246.965621)"><g><path d="M 25.671875 -42.625 L 25.671875 0 L 12.90625 0 L 12.90625 -97.71875 L 25.671875 -97.71875 L 25.671875 -55.234375 L 73.390625 -55.234375 L 73.390625 -97.71875 L 86 -97.71875 L 86 0 L 73.546875 0 L 73.390625 -42.625 Z M 25.671875 -42.625 "/></g></g></g><g fill="#2e2e2e" fill-opacity="0.302"><g transform="translate(238.432773, 260.232475)"><g><path d="M 55.984375 -85.109375 L 13.359375 -85.109375 L 13.359375 -97.71875 L 76.703125 -97.71875 L 32.421875 -12.453125 L 74.890625 -12.453125 L 74.890625 0 L 11.703125 0 Z M 55.984375 -85.109375 "/></g></g></g><g fill="#2e2e2e" fill-opacity="0.502"><g transform="translate(231.799349, 253.599048)"><g><path d="M 55.984375 -85.109375 L 13.359375 -85.109375 L 13.359375 -97.71875 L 76.703125 -97.71875 L 32.421875 -12.453125 L 74.890625 -12.453125 L 74.890625 0 L 11.703125 0 Z M 55.984375 -85.109375 "/></g></g></g><g fill="#2e2e2e" fill-opacity="1"><g transform="translate(225.165925, 246.965621)"><g><path d="M 55.984375 -85.109375 L 13.359375 -85.109375 L 13.359375 -97.71875 L 76.703125 -97.71875 L 32.421875 -12.453125 L 74.890625 -12.453125 L 74.890625 0 L 11.703125 0 Z M 55.984375 -85.109375 "/></g></g></g><g clip-path="url(#ceb3be3081)"><path fill="#cb6ce6" d="M 34.800781 261.914062 L 187.488281 261.914062 L 187.488281 270.769531 L 34.800781 270.769531 Z M 34.800781 261.914062 " fill-opacity="1" fill-rule="nonzero"/></g><g fill="#2e2e2e" fill-opacity="1"><g transform="translate(219.48908, 270.832224)"><g><path d="M 4.21875 0.1875 C 3.46875 0.1875 2.816406 0.0625 2.265625 -0.1875 C 1.722656 -0.4375 1.300781 -0.789062 1 -1.25 C 0.707031 -1.707031 0.5625 -2.25 0.5625 -2.875 L 2.578125 -2.875 C 2.578125 -2.445312 2.722656 -2.109375 3.015625 -1.859375 C 3.316406 -1.617188 3.710938 -1.5 4.203125 -1.5 C 4.640625 -1.5 4.976562 -1.582031 5.21875 -1.75 C 5.46875 -1.925781 5.59375 -2.160156 5.59375 -2.453125 C 5.59375 -2.773438 5.441406 -3.035156 5.140625 -3.234375 C 4.847656 -3.429688 4.382812 -3.597656 3.75 -3.734375 C 2.6875 -3.953125 1.898438 -4.289062 1.390625 -4.75 C 0.890625 -5.207031 0.640625 -5.800781 0.640625 -6.53125 C 0.640625 -7.351562 0.941406 -8 1.546875 -8.46875 C 2.148438 -8.945312 2.96875 -9.1875 4 -9.1875 C 4.71875 -9.1875 5.335938 -9.0625 5.859375 -8.8125 C 6.378906 -8.570312 6.78125 -8.226562 7.0625 -7.78125 C 7.351562 -7.34375 7.5 -6.820312 7.5 -6.21875 L 5.53125 -6.21875 C 5.53125 -6.625 5.394531 -6.941406 5.125 -7.171875 C 4.863281 -7.398438 4.5 -7.515625 4.03125 -7.515625 C 3.601562 -7.515625 3.265625 -7.429688 3.015625 -7.265625 C 2.765625 -7.097656 2.640625 -6.863281 2.640625 -6.5625 C 2.640625 -6.289062 2.773438 -6.0625 3.046875 -5.875 C 3.328125 -5.6875 3.8125 -5.507812 4.5 -5.34375 C 5.625 -5.070312 6.429688 -4.710938 6.921875 -4.265625 C 7.421875 -3.828125 7.671875 -3.25 7.671875 -2.53125 C 7.671875 -1.6875 7.363281 -1.019531 6.75 -0.53125 C 6.132812 -0.0507812 5.289062 0.1875 4.21875 0.1875 Z M 4.21875 0.1875 "/></g></g></g><g fill="#2e2e2e" fill-opacity="1"><g transform="translate(230.875988, 270.832224)"><g><path d="M 5.359375 0.1875 C 4.421875 0.1875 3.585938 -0.0078125 2.859375 -0.40625 C 2.140625 -0.8125 1.570312 -1.363281 1.15625 -2.0625 C 0.75 -2.769531 0.546875 -3.582031 0.546875 -4.5 C 0.546875 -5.425781 0.75 -6.238281 1.15625 -6.9375 C 1.570312 -7.644531 2.140625 -8.195312 2.859375 -8.59375 C 3.585938 -8.988281 4.421875 -9.1875 5.359375 -9.1875 C 6.296875 -9.1875 7.125 -8.988281 7.84375 -8.59375 C 8.570312 -8.195312 9.140625 -7.644531 9.546875 -6.9375 C 9.960938 -6.238281 10.171875 -5.425781 10.171875 -4.5 C 10.171875 -3.582031 9.960938 -2.769531 9.546875 -2.0625 C 9.140625 -1.363281 8.570312 -0.8125 7.84375 -0.40625 C 7.125 -0.0078125 6.296875 0.1875 5.359375 0.1875 Z M 2.640625 -4.5 C 2.640625 -3.957031 2.753906 -3.476562 2.984375 -3.0625 C 3.210938 -2.65625 3.53125 -2.335938 3.9375 -2.109375 C 4.351562 -1.878906 4.828125 -1.765625 5.359375 -1.765625 C 5.898438 -1.765625 6.375 -1.878906 6.78125 -2.109375 C 7.1875 -2.335938 7.503906 -2.65625 7.734375 -3.0625 C 7.960938 -3.476562 8.078125 -3.957031 8.078125 -4.5 C 8.078125 -5.039062 7.960938 -5.515625 7.734375 -5.921875 C 7.503906 -6.335938 7.1875 -6.660156 6.78125 -6.890625 C 6.375 -7.128906 5.898438 -7.25 5.359375 -7.25 C 4.828125 -7.25 4.351562 -7.128906 3.9375 -6.890625 C 3.53125 -6.660156 3.210938 -6.335938 2.984375 -5.921875 C 2.753906 -5.515625 2.640625 -5.039062 2.640625 -4.5 Z M 2.640625 -4.5 "/></g></g></g><g fill="#2e2e2e" fill-opacity="1"><g transform="translate(244.736076, 270.832224)"><g><path d="M 1.078125 0 L 1.078125 -9.015625 L 3.125 -9.015625 L 3.125 -1.921875 L 7.0625 -1.921875 L 7.0625 0 Z M 1.078125 0 "/></g></g></g><g fill="#2e2e2e" fill-opacity="1"><g transform="translate(255.285716, 270.832224)"><g><path d="M 4.765625 0.1875 C 3.984375 0.1875 3.3125 0.03125 2.75 -0.28125 C 2.1875 -0.601562 1.75 -1.050781 1.4375 -1.625 C 1.132812 -2.207031 0.984375 -2.898438 0.984375 -3.703125 L 0.984375 -9.015625 L 3.03125 -9.015625 L 3.03125 -3.84375 C 3.03125 -2.457031 3.609375 -1.765625 4.765625 -1.765625 C 5.910156 -1.765625 6.484375 -2.457031 6.484375 -3.84375 L 6.484375 -9.015625 L 8.53125 -9.015625 L 8.53125 -3.703125 C 8.53125 -2.898438 8.378906 -2.207031 8.078125 -1.625 C 7.773438 -1.050781 7.34375 -0.601562 6.78125 -0.28125 C 6.21875 0.03125 5.546875 0.1875 4.765625 0.1875 Z M 4.765625 0.1875 "/></g></g></g><g fill="#2e2e2e" fill-opacity="1"><g transform="translate(267.947869, 270.832224)"><g><path d="M 3.25 0 L 3.25 -7.09375 L 0.390625 -7.09375 L 0.390625 -9.015625 L 8.15625 -9.015625 L 8.15625 -7.09375 L 5.296875 -7.09375 L 5.296875 0 Z M 3.25 0 "/></g></g></g><g fill="#2e2e2e" fill-opacity="1"><g transform="translate(279.618168, 270.832224)"><g><path d="M 1.078125 0 L 1.078125 -9.015625 L 3.125 -9.015625 L 3.125 0 Z M 1.078125 0 "/></g></g></g><g fill="#2e2e2e" fill-opacity="1"><g transform="translate(286.960401, 270.832224)"><g><path d="M 5.359375 0.1875 C 4.421875 0.1875 3.585938 -0.0078125 2.859375 -0.40625 C 2.140625 -0.8125 1.570312 -1.363281 1.15625 -2.0625 C 0.75 -2.769531 0.546875 -3.582031 0.546875 -4.5 C 0.546875 -5.425781 0.75 -6.238281 1.15625 -6.9375 C 1.570312 -7.644531 2.140625 -8.195312 2.859375 -8.59375 C 3.585938 -8.988281 4.421875 -9.1875 5.359375 -9.1875 C 6.296875 -9.1875 7.125 -8.988281 7.84375 -8.59375 C 8.570312 -8.195312 9.140625 -7.644531 9.546875 -6.9375 C 9.960938 -6.238281 10.171875 -5.425781 10.171875 -4.5 C 10.171875 -3.582031 9.960938 -2.769531 9.546875 -2.0625 C 9.140625 -1.363281 8.570312 -0.8125 7.84375 -0.40625 C 7.125 -0.0078125 6.296875 0.1875 5.359375 0.1875 Z M 2.640625 -4.5 C 2.640625 -3.957031 2.753906 -3.476562 2.984375 -3.0625 C 3.210938 -2.65625 3.53125 -2.335938 3.9375 -2.109375 C 4.351562 -1.878906 4.828125 -1.765625 5.359375 -1.765625 C 5.898438 -1.765625 6.375 -1.878906 6.78125 -2.109375 C 7.1875 -2.335938 7.503906 -2.65625 7.734375 -3.0625 C 7.960938 -3.476562 8.078125 -3.957031 8.078125 -4.5 C 8.078125 -5.039062 7.960938 -5.515625 7.734375 -5.921875 C 7.503906 -6.335938 7.1875 -6.660156 6.78125 -6.890625 C 6.375 -7.128906 5.898438 -7.25 5.359375 -7.25 C 4.828125 -7.25 4.351562 -7.128906 3.9375 -6.890625 C 3.53125 -6.660156 3.210938 -6.335938 2.984375 -5.921875 C 2.753906 -5.515625 2.640625 -5.039062 2.640625 -4.5 Z M 2.640625 -4.5 "/></g></g></g><g fill="#2e2e2e" fill-opacity="1"><g transform="translate(300.820489, 270.832224)"><g><path d="M 1.078125 0 L 1.078125 -9.015625 L 2.8125 -9.015625 L 6.796875 -3.53125 L 6.796875 -9.015625 L 8.828125 -9.015625 L 8.828125 0 L 7.09375 0 L 3.109375 -5.515625 L 3.109375 0 Z M 1.078125 0 "/></g></g></g><g fill="#2e2e2e" fill-opacity="1"><g transform="translate(313.869074, 270.832224)"><g><path d="M 4.21875 0.1875 C 3.46875 0.1875 2.816406 0.0625 2.265625 -0.1875 C 1.722656 -0.4375 1.300781 -0.789062 1 -1.25 C 0.707031 -1.707031 0.5625 -2.25 0.5625 -2.875 L 2.578125 -2.875 C 2.578125 -2.445312 2.722656 -2.109375 3.015625 -1.859375 C 3.316406 -1.617188 3.710938 -1.5 4.203125 -1.5 C 4.640625 -1.5 4.976562 -1.582031 5.21875 -1.75 C 5.46875 -1.925781 5.59375 -2.160156 5.59375 -2.453125 C 5.59375 -2.773438 5.441406 -3.035156 5.140625 -3.234375 C 4.847656 -3.429688 4.382812 -3.597656 3.75 -3.734375 C 2.6875 -3.953125 1.898438 -4.289062 1.390625 -4.75 C 0.890625 -5.207031 0.640625 -5.800781 0.640625 -6.53125 C 0.640625 -7.351562 0.941406 -8 1.546875 -8.46875 C 2.148438 -8.945312 2.96875 -9.1875 4 -9.1875 C 4.71875 -9.1875 5.335938 -9.0625 5.859375 -8.8125 C 6.378906 -8.570312 6.78125 -8.226562 7.0625 -7.78125 C 7.351562 -7.34375 7.5 -6.820312 7.5 -6.21875 L 5.53125 -6.21875 C 5.53125 -6.625 5.394531 -6.941406 5.125 -7.171875 C 4.863281 -7.398438 4.5 -7.515625 4.03125 -7.515625 C 3.601562 -7.515625 3.265625 -7.429688 3.015625 -7.265625 C 2.765625 -7.097656 2.640625 -6.863281 2.640625 -6.5625 C 2.640625 -6.289062 2.773438 -6.0625 3.046875 -5.875 C 3.328125 -5.6875 3.8125 -5.507812 4.5 -5.34375 C 5.625 -5.070312 6.429688 -4.710938 6.921875 -4.265625 C 7.421875 -3.828125 7.671875 -3.25 7.671875 -2.53125 C 7.671875 -1.6875 7.363281 -1.019531 6.75 -0.53125 C 6.132812 -0.0507812 5.289062 0.1875 4.21875 0.1875 Z M 4.21875 0.1875 "/></g></g></g></svg>