<svg xmlns="http://www.w3.org/2000/svg" xmlns:xlink="http://www.w3.org/1999/xlink" width="500" zoomAndPan="magnify" viewBox="0 0 375 374.999991" height="500" preserveAspectRatio="xMidYMid meet" version="1.0"><defs><g/><clipPath id="e9b7c2efc5"><path d="M 103.417969 56.023438 L 346.417969 56.023438 L 346.417969 319 L 103.417969 319 Z M 103.417969 56.023438 " clip-rule="nonzero"/></clipPath></defs><g clip-path="url(#e9b7c2efc5)"><path fill="#ff3131" d="M 346.640625 209.882812 L 346.640625 165.109375 L 257.097656 165.109375 L 257.097656 209.882812 Z M 103.417969 159.527344 L 103.417969 145.691406 L 117.257812 145.691406 L 117.257812 159.527344 Z M 192.960938 69.984375 L 192.960938 56.148438 L 206.800781 56.148438 L 206.800781 69.984375 Z M 220.753906 84 L 220.753906 111.964844 L 248.722656 111.964844 L 248.722656 84 Z M 148.191406 114.757812 L 148.191406 100.917969 L 162.027344 100.917969 L 162.027344 114.757812 Z M 176.042969 128.769531 L 176.042969 156.738281 L 204.007812 156.738281 L 204.007812 128.769531 Z M 301.925781 165.109375 L 301.925781 254.65625 L 257.15625 254.65625 L 257.15625 209.882812 L 212.382812 209.882812 L 212.382812 165.109375 L 257.15625 165.109375 L 257.15625 120.339844 L 301.925781 120.339844 Z M 103.417969 229.304688 L 103.417969 215.464844 L 117.257812 215.464844 L 117.257812 229.304688 Z M 131.269531 201.453125 L 159.238281 201.453125 L 159.238281 173.484375 L 131.269531 173.484375 Z M 192.960938 318.847656 L 192.960938 305.007812 L 206.800781 305.007812 L 206.800781 318.847656 Z M 220.753906 290.996094 L 220.753906 263.027344 L 248.722656 263.027344 L 248.722656 290.996094 Z M 148.191406 274.074219 L 148.191406 260.238281 L 162.027344 260.238281 L 162.027344 274.074219 Z M 176.042969 246.222656 L 176.042969 218.257812 L 204.007812 218.257812 L 204.007812 246.222656 Z M 176.042969 246.222656 " fill-opacity="1" fill-rule="evenodd"/></g><g fill="#ffffff" fill-opacity="1"><g transform="translate(28.030308, 248.351887)"><g><path d="M 25.5 -58.84375 C 28.625 -58.84375 31.679688 -58.382812 34.671875 -57.46875 C 37.660156 -56.5625 39.878906 -55.664062 41.328125 -54.78125 L 43.421875 -53.375 L 38.109375 -42.875 C 37.679688 -43.144531 37.09375 -43.503906 36.34375 -43.953125 C 35.601562 -44.398438 34.203125 -44.992188 32.140625 -45.734375 C 30.085938 -46.484375 28.175781 -46.859375 26.40625 -46.859375 C 24.207031 -46.859375 22.515625 -46.390625 21.328125 -45.453125 C 20.140625 -44.523438 19.546875 -43.265625 19.546875 -41.671875 C 19.546875 -40.878906 19.820312 -40.144531 20.375 -39.46875 C 20.9375 -38.789062 21.894531 -38.066406 23.25 -37.296875 C 24.601562 -36.523438 25.796875 -35.90625 26.828125 -35.4375 C 27.859375 -34.976562 29.445312 -34.28125 31.59375 -33.34375 C 35.320312 -31.75 38.503906 -29.585938 41.140625 -26.859375 C 43.785156 -24.128906 45.109375 -21.035156 45.109375 -17.578125 C 45.109375 -14.265625 44.507812 -11.367188 43.3125 -8.890625 C 42.125 -6.421875 40.488281 -4.484375 38.40625 -3.078125 C 36.332031 -1.679688 34.035156 -0.644531 31.515625 0.03125 C 28.992188 0.707031 26.265625 1.046875 23.328125 1.046875 C 20.804688 1.046875 18.332031 0.789062 15.90625 0.28125 C 13.476562 -0.226562 11.445312 -0.867188 9.8125 -1.640625 C 8.175781 -2.410156 6.703125 -3.171875 5.390625 -3.921875 C 4.085938 -4.671875 3.128906 -5.300781 2.515625 -5.8125 L 1.609375 -6.578125 L 8.203125 -17.65625 C 8.753906 -17.1875 9.519531 -16.585938 10.5 -15.859375 C 11.488281 -15.140625 13.226562 -14.171875 15.71875 -12.953125 C 18.21875 -11.742188 20.425781 -11.140625 22.34375 -11.140625 C 27.90625 -11.140625 30.6875 -13.03125 30.6875 -16.8125 C 30.6875 -17.601562 30.484375 -18.335938 30.078125 -19.015625 C 29.679688 -19.691406 28.984375 -20.367188 27.984375 -21.046875 C 26.984375 -21.722656 26.097656 -22.257812 25.328125 -22.65625 C 24.554688 -23.050781 23.289062 -23.65625 21.53125 -24.46875 C 19.78125 -25.289062 18.488281 -25.914062 17.65625 -26.34375 C 14.144531 -28.0625 11.429688 -30.21875 9.515625 -32.8125 C 7.609375 -35.40625 6.65625 -38.195312 6.65625 -41.1875 C 6.65625 -46.375 8.566406 -50.613281 12.390625 -53.90625 C 16.222656 -57.195312 20.59375 -58.84375 25.5 -58.84375 Z M 25.5 -58.84375 "/></g></g></g><g fill="#ffffff" fill-opacity="1"><g transform="translate(71.523796, 248.351887)"><g><path d="M 7.59375 -4.265625 C 3.601562 -7.816406 1.609375 -12.367188 1.609375 -17.921875 C 1.609375 -23.484375 3.6875 -28.050781 7.84375 -31.625 C 12 -35.195312 17.132812 -36.984375 23.25 -36.984375 C 29.28125 -36.984375 34.359375 -35.1875 38.484375 -31.59375 C 42.617188 -28 44.6875 -23.445312 44.6875 -17.9375 C 44.6875 -12.425781 42.664062 -7.882812 38.625 -4.3125 C 34.59375 -0.738281 29.46875 1.046875 23.25 1.046875 C 16.8125 1.046875 11.59375 -0.722656 7.59375 -4.265625 Z M 17.1875 -24.015625 C 15.582031 -22.429688 14.78125 -20.398438 14.78125 -17.921875 C 14.78125 -15.453125 15.550781 -13.4375 17.09375 -11.875 C 18.632812 -10.3125 20.664062 -9.53125 23.1875 -9.53125 C 25.613281 -9.53125 27.609375 -10.320312 29.171875 -11.90625 C 30.734375 -13.5 31.515625 -15.507812 31.515625 -17.9375 C 31.515625 -20.40625 30.707031 -22.429688 29.09375 -24.015625 C 27.488281 -25.609375 25.519531 -26.40625 23.1875 -26.40625 C 20.800781 -26.40625 18.800781 -25.609375 17.1875 -24.015625 Z M 17.1875 -24.015625 "/></g></g></g><g fill="#ffffff" fill-opacity="1"><g transform="translate(114.246862, 248.351887)"><g><path d="M 4.203125 0 L 4.203125 -60.234375 L 16.59375 -60.234375 L 16.59375 0 Z M 4.203125 0 "/></g></g></g><g fill="#ffffff" fill-opacity="1"><g transform="translate(131.475946, 248.351887)"><g><path d="M 15.90625 -35.9375 L 15.90625 -18.84375 C 15.90625 -15.289062 16.441406 -12.765625 17.515625 -11.265625 C 18.585938 -9.773438 20.40625 -9.03125 22.96875 -9.03125 C 25.539062 -9.03125 27.363281 -9.773438 28.4375 -11.265625 C 29.507812 -12.765625 30.046875 -15.289062 30.046875 -18.84375 L 30.046875 -35.9375 L 42.453125 -35.9375 L 42.453125 -15.828125 C 42.453125 -9.847656 40.894531 -5.539062 37.78125 -2.90625 C 34.675781 -0.269531 29.738281 1.046875 22.96875 1.046875 C 16.195312 1.046875 11.257812 -0.269531 8.15625 -2.90625 C 5.050781 -5.539062 3.5 -9.847656 3.5 -15.828125 L 3.5 -35.9375 Z M 15.90625 -35.9375 "/></g></g></g><g fill="#ffffff" fill-opacity="1"><g transform="translate(173.848835, 248.351887)"><g><path d="M 6.296875 -35.9375 L 6.296875 -49.3125 L 18.703125 -49.3125 L 18.703125 -35.9375 L 26.265625 -35.9375 L 26.265625 -26.484375 L 18.703125 -26.484375 L 18.703125 -15.0625 C 18.703125 -11.75 19.632812 -10.09375 21.5 -10.09375 C 21.96875 -10.09375 22.457031 -10.179688 22.96875 -10.359375 C 23.488281 -10.546875 23.890625 -10.734375 24.171875 -10.921875 L 24.59375 -11.203125 L 27.671875 -1.1875 C 25.003906 0.300781 21.96875 1.046875 18.5625 1.046875 C 16.226562 1.046875 14.21875 0.640625 12.53125 -0.171875 C 10.851562 -0.992188 9.582031 -2.09375 8.71875 -3.46875 C 7.851562 -4.84375 7.234375 -6.289062 6.859375 -7.8125 C 6.484375 -9.332031 6.296875 -10.953125 6.296875 -12.671875 L 6.296875 -26.484375 L 1.125 -26.484375 L 1.125 -35.9375 Z M 6.296875 -35.9375 "/></g></g></g><g fill="#ffffff" fill-opacity="1"><g transform="translate(197.941685, 248.351887)"><g><path d="M 5.390625 -55.96875 C 6.835938 -57.414062 8.566406 -58.140625 10.578125 -58.140625 C 12.585938 -58.140625 14.316406 -57.414062 15.765625 -55.96875 C 17.210938 -54.519531 17.9375 -52.789062 17.9375 -50.78125 C 17.9375 -48.769531 17.210938 -47.039062 15.765625 -45.59375 C 14.316406 -44.144531 12.585938 -43.421875 10.578125 -43.421875 C 8.566406 -43.421875 6.835938 -44.144531 5.390625 -45.59375 C 3.941406 -47.039062 3.21875 -48.769531 3.21875 -50.78125 C 3.21875 -52.789062 3.941406 -54.519531 5.390625 -55.96875 Z M 4.203125 -35.9375 L 4.203125 0 L 16.59375 0 L 16.59375 -35.9375 Z M 4.203125 -35.9375 "/></g></g></g><g fill="#ffffff" fill-opacity="1"><g transform="translate(215.52097, 248.351887)"><g><path d="M 7.59375 -4.265625 C 3.601562 -7.816406 1.609375 -12.367188 1.609375 -17.921875 C 1.609375 -23.484375 3.6875 -28.050781 7.84375 -31.625 C 12 -35.195312 17.132812 -36.984375 23.25 -36.984375 C 29.28125 -36.984375 34.359375 -35.1875 38.484375 -31.59375 C 42.617188 -28 44.6875 -23.445312 44.6875 -17.9375 C 44.6875 -12.425781 42.664062 -7.882812 38.625 -4.3125 C 34.59375 -0.738281 29.46875 1.046875 23.25 1.046875 C 16.8125 1.046875 11.59375 -0.722656 7.59375 -4.265625 Z M 17.1875 -24.015625 C 15.582031 -22.429688 14.78125 -20.398438 14.78125 -17.921875 C 14.78125 -15.453125 15.550781 -13.4375 17.09375 -11.875 C 18.632812 -10.3125 20.664062 -9.53125 23.1875 -9.53125 C 25.613281 -9.53125 27.609375 -10.320312 29.171875 -11.90625 C 30.734375 -13.5 31.515625 -15.507812 31.515625 -17.9375 C 31.515625 -20.40625 30.707031 -22.429688 29.09375 -24.015625 C 27.488281 -25.609375 25.519531 -26.40625 23.1875 -26.40625 C 20.800781 -26.40625 18.800781 -25.609375 17.1875 -24.015625 Z M 17.1875 -24.015625 "/></g></g></g><g fill="#ffffff" fill-opacity="1"><g transform="translate(258.244031, 248.351887)"><g><path d="M 4.203125 0 L 4.203125 -35.9375 L 16.59375 -35.9375 L 16.59375 -32.15625 L 16.734375 -32.15625 C 19.960938 -35.375 23.394531 -36.984375 27.03125 -36.984375 C 28.8125 -36.984375 30.578125 -36.75 32.328125 -36.28125 C 34.078125 -35.8125 35.753906 -35.085938 37.359375 -34.109375 C 38.972656 -33.128906 40.28125 -31.738281 41.28125 -29.9375 C 42.289062 -28.144531 42.796875 -26.054688 42.796875 -23.671875 L 42.796875 0 L 30.40625 0 L 30.40625 -20.3125 C 30.40625 -22.175781 29.804688 -23.804688 28.609375 -25.203125 C 27.421875 -26.609375 25.867188 -27.3125 23.953125 -27.3125 C 22.085938 -27.3125 20.394531 -26.585938 18.875 -25.140625 C 17.351562 -23.691406 16.59375 -22.082031 16.59375 -20.3125 L 16.59375 0 Z M 4.203125 0 "/></g></g></g><g fill="#ffffff" fill-opacity="1"><g transform="translate(300.967091, 248.351887)"><g><path d="M 19.828125 -36.984375 C 21.878906 -36.984375 23.90625 -36.75 25.90625 -36.28125 C 27.914062 -35.8125 29.414062 -35.347656 30.40625 -34.890625 L 31.875 -34.1875 L 27.8125 -26.0625 C 25.007812 -27.550781 22.347656 -28.296875 19.828125 -28.296875 C 18.421875 -28.296875 17.425781 -28.144531 16.84375 -27.84375 C 16.257812 -27.539062 15.96875 -26.96875 15.96875 -26.125 C 15.96875 -25.9375 15.988281 -25.75 16.03125 -25.5625 C 16.082031 -25.375 16.175781 -25.195312 16.3125 -25.03125 C 16.457031 -24.875 16.585938 -24.738281 16.703125 -24.625 C 16.816406 -24.507812 17.015625 -24.378906 17.296875 -24.234375 C 17.578125 -24.097656 17.800781 -23.992188 17.96875 -23.921875 C 18.132812 -23.847656 18.398438 -23.738281 18.765625 -23.59375 C 19.140625 -23.457031 19.421875 -23.351562 19.609375 -23.28125 C 19.796875 -23.21875 20.109375 -23.113281 20.546875 -22.96875 C 20.992188 -22.832031 21.335938 -22.738281 21.578125 -22.6875 C 23.023438 -22.269531 24.285156 -21.804688 25.359375 -21.296875 C 26.429688 -20.785156 27.5625 -20.082031 28.75 -19.1875 C 29.945312 -18.300781 30.867188 -17.179688 31.515625 -15.828125 C 32.171875 -14.472656 32.5 -12.929688 32.5 -11.203125 C 32.5 -3.035156 26.828125 1.046875 15.484375 1.046875 C 12.910156 1.046875 10.46875 0.648438 8.15625 -0.140625 C 5.84375 -0.929688 4.175781 -1.722656 3.15625 -2.515625 L 1.609375 -3.78125 L 6.65625 -12.265625 C 7.03125 -11.929688 7.519531 -11.539062 8.125 -11.09375 C 8.726562 -10.65625 9.820312 -10.050781 11.40625 -9.28125 C 13 -8.507812 14.378906 -8.125 15.546875 -8.125 C 18.117188 -8.125 19.40625 -8.988281 19.40625 -10.71875 C 19.40625 -11.507812 19.078125 -12.125 18.421875 -12.5625 C 17.765625 -13.007812 16.65625 -13.515625 15.09375 -14.078125 C 13.53125 -14.640625 12.304688 -15.15625 11.421875 -15.625 C 9.179688 -16.789062 7.40625 -18.109375 6.09375 -19.578125 C 4.78125 -21.046875 4.125 -22.992188 4.125 -25.421875 C 4.125 -29.066406 5.535156 -31.90625 8.359375 -33.9375 C 11.191406 -35.96875 15.015625 -36.984375 19.828125 -36.984375 Z M 19.828125 -36.984375 "/></g></g></g><g fill="#ffffff" fill-opacity="1"><g transform="translate(29.869, 181.739997)"><g><path d="M 4.203125 -57.78125 L 24.859375 -57.78125 C 30.421875 -57.78125 34.953125 -56.296875 38.453125 -53.328125 C 41.953125 -50.367188 43.703125 -46.132812 43.703125 -40.625 C 43.703125 -36.375 42.640625 -32.8125 40.515625 -29.9375 C 38.390625 -27.070312 35.507812 -25.054688 31.875 -23.890625 L 51.765625 0 L 35.03125 0 L 17.375 -22.828125 L 17.375 0 L 4.203125 0 Z M 17.375 -32.15625 L 18.90625 -32.15625 C 20.125 -32.15625 21.148438 -32.175781 21.984375 -32.21875 C 22.828125 -32.269531 23.785156 -32.429688 24.859375 -32.703125 C 25.941406 -32.984375 26.804688 -33.378906 27.453125 -33.890625 C 28.109375 -34.410156 28.671875 -35.160156 29.140625 -36.140625 C 29.609375 -37.117188 29.84375 -38.304688 29.84375 -39.703125 C 29.84375 -41.109375 29.609375 -42.300781 29.140625 -43.28125 C 28.671875 -44.269531 28.109375 -45.019531 27.453125 -45.53125 C 26.804688 -46.039062 25.941406 -46.4375 24.859375 -46.71875 C 23.785156 -47 22.828125 -47.160156 21.984375 -47.203125 C 21.148438 -47.253906 20.125 -47.28125 18.90625 -47.28125 L 17.375 -47.28125 Z M 17.375 -32.15625 "/></g></g></g><g fill="#ffffff" fill-opacity="1"><g transform="translate(76.444179, 181.739997)"><g><path d="M 17.375 -23.1875 L 17.375 0 L 4.203125 0 L 4.203125 -57.78125 L 17.375 -57.78125 L 17.375 -34.75 L 36 -34.75 L 36 -57.78125 L 49.171875 -57.78125 L 49.171875 0 L 36 0 L 36 -23.1875 Z M 17.375 -23.1875 "/></g></g></g><g fill="#ffffff" fill-opacity="1"><g transform="translate(126.241132, 181.739997)"><g><path d="M 52.75 -57.78125 L 24.09375 -11.5625 L 50.859375 -11.5625 L 50.859375 0 L 1.125 0 L 29.703125 -46.234375 L 5.1875 -46.234375 L 5.1875 -57.78125 Z M 52.75 -57.78125 "/></g></g></g></svg>