<svg xmlns="http://www.w3.org/2000/svg" xmlns:xlink="http://www.w3.org/1999/xlink" width="500" zoomAndPan="magnify" viewBox="0 0 375 374.999991" height="500" preserveAspectRatio="xMidYMid meet" version="1.0"><defs><g/><clipPath id="3db083e1ca"><path d="M 34.800781 261.914062 L 187.5 261.914062 L 187.5 270.769531 L 34.800781 270.769531 Z M 34.800781 261.914062 " clip-rule="nonzero"/></clipPath></defs><g fill="#2e2e2e" fill-opacity="1"><g transform="translate(21.935399, 246.965621)"><g><path d="M 12.765625 0 L 12.765625 -97.71875 L 48.484375 -97.71875 C 52.785156 -97.71875 56.9375 -97.015625 60.9375 -95.609375 C 64.84375 -94.210938 68.296875 -92.210938 71.296875 -89.609375 C 74.492188 -86.898438 76.992188 -83.75 78.796875 -80.15625 C 80.492188 -76.550781 81.34375 -72.796875 81.34375 -68.890625 C 81.34375 -64.890625 80.492188 -61.140625 78.796875 -57.640625 C 76.992188 -54.035156 74.492188 -50.832031 71.296875 -48.03125 C 68.296875 -45.425781 64.84375 -43.425781 60.9375 -42.03125 C 56.9375 -40.53125 52.785156 -39.78125 48.484375 -39.78125 L 25.515625 -39.78125 L 25.515625 0 Z M 25.515625 -52.375 L 48.484375 -52.375 C 52.179688 -52.375 55.582031 -53.128906 58.6875 -54.640625 C 61.789062 -56.140625 64.289062 -58.140625 66.1875 -60.640625 C 67.988281 -63.140625 68.890625 -65.890625 68.890625 -68.890625 C 68.890625 -71.796875 67.988281 -74.5 66.1875 -77 C 64.289062 -79.5 61.789062 -81.5 58.6875 -83 C 55.488281 -84.40625 52.085938 -85.109375 48.484375 -85.109375 L 25.21875 -85.109375 Z M 25.515625 -52.375 "/></g></g></g><g fill="#2e2e2e" fill-opacity="1"><g transform="translate(98.781257, 246.965621)"><g><path d="M 77.75 -10.5 C 74.144531 -6.800781 70.039062 -4 65.4375 -2.09375 C 60.832031 -0.09375 55.929688 0.90625 50.734375 0.90625 C 45.628906 0.90625 40.773438 -0.09375 36.171875 -2.09375 C 31.472656 -4 27.367188 -6.800781 23.859375 -10.5 C 20.265625 -14.101562 17.515625 -18.257812 15.609375 -22.96875 C 13.710938 -27.570312 12.765625 -32.472656 12.765625 -37.671875 L 12.765625 -97.71875 L 25.21875 -97.71875 L 25.21875 -37.671875 C 25.21875 -34.171875 25.867188 -30.820312 27.171875 -27.625 C 28.472656 -24.414062 30.320312 -21.613281 32.71875 -19.21875 C 38.019531 -14.113281 44.023438 -11.5625 50.734375 -11.5625 C 54.035156 -11.5625 57.285156 -12.257812 60.484375 -13.65625 C 63.585938 -14.957031 66.34375 -16.8125 68.75 -19.21875 C 71.144531 -21.613281 72.992188 -24.414062 74.296875 -27.625 C 75.597656 -30.820312 76.25 -34.171875 76.25 -37.671875 L 76.25 -97.71875 L 88.703125 -97.71875 L 88.703125 -37.671875 C 88.703125 -32.472656 87.753906 -27.570312 85.859375 -22.96875 C 83.953125 -18.257812 81.25 -14.101562 77.75 -10.5 Z M 77.75 -10.5 "/></g></g></g><g fill="#cb6ce6" fill-opacity="1"><g transform="translate(187.192776, 246.965621)"><g><path d="M 81.65625 0 L 65.890625 0 L 28.8125 -52.375 L 42.921875 -52.375 C 46.523438 -52.375 49.726562 -52.628906 52.53125 -53.140625 C 55.226562 -53.535156 57.332031 -54.035156 58.84375 -54.640625 C 61.9375 -56.035156 64.382812 -58.082031 66.1875 -60.78125 C 67.988281 -63.382812 68.890625 -66.085938 68.890625 -68.890625 C 68.890625 -71.691406 68.039062 -74.34375 66.34375 -76.84375 C 64.644531 -79.25 62.191406 -81.253906 58.984375 -82.859375 C 55.785156 -84.359375 52.082031 -85.109375 47.875 -85.109375 L 25.21875 -85.109375 L 25.515625 0 L 12.765625 0 L 12.765625 -97.71875 L 47.875 -97.71875 C 52.582031 -97.71875 56.988281 -96.960938 61.09375 -95.453125 C 65.1875 -93.953125 68.785156 -91.800781 71.890625 -89 C 74.890625 -86.300781 77.242188 -83.203125 78.953125 -79.703125 C 80.546875 -76.203125 81.34375 -72.597656 81.34375 -68.890625 C 81.34375 -62.984375 79.546875 -57.679688 75.953125 -52.984375 C 72.941406 -48.984375 68.890625 -45.734375 63.796875 -43.234375 C 59.890625 -41.828125 56.4375 -41.125 53.4375 -41.125 Z M 81.65625 0 "/></g></g></g><g fill="#2e2e2e" fill-opacity="1"><g transform="translate(265.091241, 246.965621)"><g><path d="M 12.765625 -97.71875 L 75.203125 -97.71875 L 75.203125 -85.109375 L 25.21875 -85.109375 L 25.21875 -55.234375 L 63.484375 -55.234375 L 63.484375 -42.625 L 25.21875 -42.625 L 25.21875 -12.453125 L 75.203125 -12.453125 L 75.203125 0 L 12.765625 0 Z M 12.765625 -97.71875 "/></g></g></g><g clip-path="url(#3db083e1ca)"><path fill="#cb6ce6" d="M 34.800781 261.914062 L 187.488281 261.914062 L 187.488281 270.769531 L 34.800781 270.769531 Z M 34.800781 261.914062 " fill-opacity="1" fill-rule="nonzero"/></g><g fill="#2e2e2e" fill-opacity="1"><g transform="translate(208.067203, 270.832224)"><g><path d="M 1.078125 0 L 1.078125 -9.015625 L 4.640625 -9.015625 C 5.597656 -9.015625 6.429688 -8.820312 7.140625 -8.4375 C 7.859375 -8.0625 8.414062 -7.535156 8.8125 -6.859375 C 9.207031 -6.179688 9.40625 -5.394531 9.40625 -4.5 C 9.40625 -3.601562 9.207031 -2.816406 8.8125 -2.140625 C 8.414062 -1.472656 7.859375 -0.945312 7.140625 -0.5625 C 6.429688 -0.1875 5.597656 0 4.640625 0 Z M 3.125 -1.875 L 4.609375 -1.875 C 5.140625 -1.875 5.609375 -1.984375 6.015625 -2.203125 C 6.421875 -2.421875 6.734375 -2.726562 6.953125 -3.125 C 7.179688 -3.519531 7.296875 -3.976562 7.296875 -4.5 C 7.296875 -5.03125 7.179688 -5.488281 6.953125 -5.875 C 6.734375 -6.269531 6.414062 -6.578125 6 -6.796875 C 5.59375 -7.015625 5.117188 -7.125 4.578125 -7.125 L 3.125 -7.125 Z M 3.125 -1.875 "/></g></g></g><g fill="#2e2e2e" fill-opacity="1"><g transform="translate(221.141553, 270.832224)"><g><path d="M 1.078125 0 L 1.078125 -9.015625 L 7 -9.015625 L 7 -7.28125 L 3.109375 -7.28125 L 3.109375 -5.421875 L 6.65625 -5.421875 L 6.65625 -3.703125 L 3.109375 -3.703125 L 3.109375 -1.734375 L 7.140625 -1.734375 L 7.140625 0 Z M 1.078125 0 "/></g></g></g><g fill="#2e2e2e" fill-opacity="1"><g transform="translate(232.077625, 270.832224)"><g><path d="M 4.21875 0.1875 C 3.46875 0.1875 2.816406 0.0625 2.265625 -0.1875 C 1.722656 -0.4375 1.300781 -0.789062 1 -1.25 C 0.707031 -1.707031 0.5625 -2.25 0.5625 -2.875 L 2.578125 -2.875 C 2.578125 -2.445312 2.722656 -2.109375 3.015625 -1.859375 C 3.316406 -1.617188 3.710938 -1.5 4.203125 -1.5 C 4.640625 -1.5 4.976562 -1.582031 5.21875 -1.75 C 5.46875 -1.925781 5.59375 -2.160156 5.59375 -2.453125 C 5.59375 -2.773438 5.441406 -3.035156 5.140625 -3.234375 C 4.847656 -3.429688 4.382812 -3.597656 3.75 -3.734375 C 2.6875 -3.953125 1.898438 -4.289062 1.390625 -4.75 C 0.890625 -5.207031 0.640625 -5.800781 0.640625 -6.53125 C 0.640625 -7.351562 0.941406 -8 1.546875 -8.46875 C 2.148438 -8.945312 2.96875 -9.1875 4 -9.1875 C 4.71875 -9.1875 5.335938 -9.0625 5.859375 -8.8125 C 6.378906 -8.570312 6.78125 -8.226562 7.0625 -7.78125 C 7.351562 -7.34375 7.5 -6.820312 7.5 -6.21875 L 5.53125 -6.21875 C 5.53125 -6.625 5.394531 -6.941406 5.125 -7.171875 C 4.863281 -7.398438 4.5 -7.515625 4.03125 -7.515625 C 3.601562 -7.515625 3.265625 -7.429688 3.015625 -7.265625 C 2.765625 -7.097656 2.640625 -6.863281 2.640625 -6.5625 C 2.640625 -6.289062 2.773438 -6.0625 3.046875 -5.875 C 3.328125 -5.6875 3.8125 -5.507812 4.5 -5.34375 C 5.625 -5.070312 6.429688 -4.710938 6.921875 -4.265625 C 7.421875 -3.828125 7.671875 -3.25 7.671875 -2.53125 C 7.671875 -1.6875 7.363281 -1.019531 6.75 -0.53125 C 6.132812 -0.0507812 5.289062 0.1875 4.21875 0.1875 Z M 4.21875 0.1875 "/></g></g></g><g fill="#2e2e2e" fill-opacity="1"><g transform="translate(243.464533, 270.832224)"><g><path d="M 1.078125 0 L 1.078125 -9.015625 L 3.125 -9.015625 L 3.125 0 Z M 1.078125 0 "/></g></g></g><g fill="#2e2e2e" fill-opacity="1"><g transform="translate(250.806766, 270.832224)"><g><path d="M 5.28125 0.1875 C 4.363281 0.1875 3.546875 -0.0078125 2.828125 -0.40625 C 2.117188 -0.8125 1.5625 -1.363281 1.15625 -2.0625 C 0.75 -2.769531 0.546875 -3.582031 0.546875 -4.5 C 0.546875 -5.425781 0.742188 -6.238281 1.140625 -6.9375 C 1.546875 -7.644531 2.101562 -8.195312 2.8125 -8.59375 C 3.519531 -8.988281 4.328125 -9.1875 5.234375 -9.1875 C 5.960938 -9.1875 6.632812 -9.054688 7.25 -8.796875 C 7.875 -8.546875 8.398438 -8.1875 8.828125 -7.71875 C 9.265625 -7.25 9.578125 -6.695312 9.765625 -6.0625 L 7.5625 -6.0625 C 7.34375 -6.457031 7.03125 -6.765625 6.625 -6.984375 C 6.226562 -7.203125 5.78125 -7.3125 5.28125 -7.3125 C 4.757812 -7.3125 4.296875 -7.191406 3.890625 -6.953125 C 3.484375 -6.710938 3.164062 -6.378906 2.9375 -5.953125 C 2.707031 -5.535156 2.59375 -5.050781 2.59375 -4.5 C 2.59375 -3.957031 2.703125 -3.476562 2.921875 -3.0625 C 3.148438 -2.644531 3.46875 -2.3125 3.875 -2.0625 C 4.28125 -1.820312 4.753906 -1.703125 5.296875 -1.703125 C 5.960938 -1.703125 6.515625 -1.867188 6.953125 -2.203125 C 7.390625 -2.535156 7.671875 -2.976562 7.796875 -3.53125 L 4.875 -3.53125 L 4.875 -5.109375 L 9.96875 -5.109375 C 10.019531 -4.335938 9.941406 -3.628906 9.734375 -2.984375 C 9.535156 -2.335938 9.226562 -1.773438 8.8125 -1.296875 C 8.394531 -0.828125 7.890625 -0.460938 7.296875 -0.203125 C 6.703125 0.0546875 6.03125 0.1875 5.28125 0.1875 Z M 5.28125 0.1875 "/></g></g></g><g fill="#2e2e2e" fill-opacity="1"><g transform="translate(264.447881, 270.832224)"><g><path d="M 1.078125 0 L 1.078125 -9.015625 L 2.8125 -9.015625 L 6.796875 -3.53125 L 6.796875 -9.015625 L 8.828125 -9.015625 L 8.828125 0 L 7.09375 0 L 3.109375 -5.515625 L 3.109375 0 Z M 1.078125 0 "/></g></g></g><g fill="#2e2e2e" fill-opacity="1"><g transform="translate(277.496467, 270.832224)"><g/></g></g><g fill="#2e2e2e" fill-opacity="1"><g transform="translate(283.653638, 270.832224)"><g><path d="M 1.078125 0 L 1.078125 -9.015625 L 4.640625 -9.015625 C 5.597656 -9.015625 6.429688 -8.820312 7.140625 -8.4375 C 7.859375 -8.0625 8.414062 -7.535156 8.8125 -6.859375 C 9.207031 -6.179688 9.40625 -5.394531 9.40625 -4.5 C 9.40625 -3.601562 9.207031 -2.816406 8.8125 -2.140625 C 8.414062 -1.472656 7.859375 -0.945312 7.140625 -0.5625 C 6.429688 -0.1875 5.597656 0 4.640625 0 Z M 3.125 -1.875 L 4.609375 -1.875 C 5.140625 -1.875 5.609375 -1.984375 6.015625 -2.203125 C 6.421875 -2.421875 6.734375 -2.726562 6.953125 -3.125 C 7.179688 -3.519531 7.296875 -3.976562 7.296875 -4.5 C 7.296875 -5.03125 7.179688 -5.488281 6.953125 -5.875 C 6.734375 -6.269531 6.414062 -6.578125 6 -6.796875 C 5.59375 -7.015625 5.117188 -7.125 4.578125 -7.125 L 3.125 -7.125 Z M 3.125 -1.875 "/></g></g></g><g fill="#2e2e2e" fill-opacity="1"><g transform="translate(296.727987, 270.832224)"><g><path d="M 1.078125 0 L 1.078125 -9.015625 L 7 -9.015625 L 7 -7.28125 L 3.109375 -7.28125 L 3.109375 -5.421875 L 6.65625 -5.421875 L 6.65625 -3.703125 L 3.109375 -3.703125 L 3.109375 -1.734375 L 7.140625 -1.734375 L 7.140625 0 Z M 1.078125 0 "/></g></g></g><g fill="#2e2e2e" fill-opacity="1"><g transform="translate(307.664059, 270.832224)"><g><path d="M 1.078125 0 L 1.078125 -9.015625 L 2.8125 -9.015625 L 6.03125 -4.34375 L 9.21875 -9.015625 L 10.9375 -9.015625 L 10.9375 0 L 8.90625 0 L 8.90625 -5.421875 L 6.71875 -2.234375 L 5.296875 -2.234375 L 3.109375 -5.4375 L 3.109375 0 Z M 1.078125 0 "/></g></g></g><g fill="#2e2e2e" fill-opacity="1"><g transform="translate(322.825157, 270.832224)"><g><path d="M 5.359375 0.1875 C 4.421875 0.1875 3.585938 -0.0078125 2.859375 -0.40625 C 2.140625 -0.8125 1.570312 -1.363281 1.15625 -2.0625 C 0.75 -2.769531 0.546875 -3.582031 0.546875 -4.5 C 0.546875 -5.425781 0.75 -6.238281 1.15625 -6.9375 C 1.570312 -7.644531 2.140625 -8.195312 2.859375 -8.59375 C 3.585938 -8.988281 4.421875 -9.1875 5.359375 -9.1875 C 6.296875 -9.1875 7.125 -8.988281 7.84375 -8.59375 C 8.570312 -8.195312 9.140625 -7.644531 9.546875 -6.9375 C 9.960938 -6.238281 10.171875 -5.425781 10.171875 -4.5 C 10.171875 -3.582031 9.960938 -2.769531 9.546875 -2.0625 C 9.140625 -1.363281 8.570312 -0.8125 7.84375 -0.40625 C 7.125 -0.0078125 6.296875 0.1875 5.359375 0.1875 Z M 2.640625 -4.5 C 2.640625 -3.957031 2.753906 -3.476562 2.984375 -3.0625 C 3.210938 -2.65625 3.53125 -2.335938 3.9375 -2.109375 C 4.351562 -1.878906 4.828125 -1.765625 5.359375 -1.765625 C 5.898438 -1.765625 6.375 -1.878906 6.78125 -2.109375 C 7.1875 -2.335938 7.503906 -2.65625 7.734375 -3.0625 C 7.960938 -3.476562 8.078125 -3.957031 8.078125 -4.5 C 8.078125 -5.039062 7.960938 -5.515625 7.734375 -5.921875 C 7.503906 -6.335938 7.1875 -6.660156 6.78125 -6.890625 C 6.375 -7.128906 5.898438 -7.25 5.359375 -7.25 C 4.828125 -7.25 4.351562 -7.128906 3.9375 -6.890625 C 3.53125 -6.660156 3.210938 -6.335938 2.984375 -5.921875 C 2.753906 -5.515625 2.640625 -5.039062 2.640625 -4.5 Z M 2.640625 -4.5 "/></g></g></g></svg>