<svg xmlns="http://www.w3.org/2000/svg" xmlns:xlink="http://www.w3.org/1999/xlink" width="500" zoomAndPan="magnify" viewBox="0 0 375 374.999991" height="500" preserveAspectRatio="xMidYMid meet" version="1.0"><defs><clipPath id="6363448883"><path d="M 62.074219 97.488281 L 312.574219 97.488281 L 312.574219 248.988281 L 62.074219 248.988281 Z M 62.074219 97.488281 " clip-rule="nonzero"/></clipPath></defs><g clip-path="url(#6363448883)"><path fill="#000000" d="M 121.203125 137 L 168.433594 137 L 168.433594 140.765625 L 125.53125 140.765625 L 125.53125 169.09375 L 165.878906 169.09375 L 165.878906 172.863281 L 125.53125 172.863281 L 125.53125 203.964844 L 168.925781 203.964844 L 168.925781 207.734375 L 121.203125 207.734375 Z M 172.664062 137 L 177.683594 137 L 199.921875 168.105469 L 222.648438 137 L 253.5625 97.488281 L 202.773438 171.375 L 228.949219 207.734375 L 223.730469 207.734375 L 199.921875 174.640625 L 176.011719 207.734375 L 170.894531 207.734375 L 197.261719 171.375 Z M 230.816406 140.765625 L 230.816406 137 L 284.640625 137 L 284.640625 140.765625 L 259.84375 140.765625 L 259.84375 207.730469 L 255.515625 207.730469 L 255.515625 140.765625 Z M 62.117188 137 L 67.53125 137 L 142.15625 248.980469 L 111.316406 207.734375 L 66.648438 142.351562 L 66.449219 207.734375 L 62.121094 207.734375 L 62.121094 137 Z M 284.199219 202.832031 C 283.320312 202.832031 282.65625 202.140625 282.65625 201.253906 C 282.65625 200.367188 283.320312 199.679688 284.199219 199.679688 C 285.09375 199.679688 285.75 200.367188 285.75 201.253906 C 285.75 202.140625 285.09375 202.832031 284.199219 202.832031 Z M 288.457031 198.683594 L 290.773438 198.683594 C 290.804688 199.945312 291.722656 200.789062 293.066406 200.789062 C 294.574219 200.789062 295.425781 199.882812 295.425781 198.179688 L 295.425781 187.394531 L 297.785156 187.394531 L 297.785156 198.1875 C 297.785156 201.253906 296.015625 203.019531 293.09375 203.019531 C 290.34375 203.019531 288.457031 201.308594 288.457031 198.683594 Z M 300.875 198.546875 L 303.210938 198.546875 C 303.40625 200 304.820312 200.917969 306.855469 200.917969 C 308.746094 200.917969 310.136719 199.933594 310.136719 198.582031 C 310.136719 197.417969 309.25 196.71875 307.242188 196.242188 L 305.285156 195.765625 C 302.535156 195.125 301.285156 193.789062 301.285156 191.546875 C 301.285156 188.832031 303.496094 187.027344 306.8125 187.027344 C 309.898438 187.027344 312.148438 188.832031 312.285156 191.402344 L 309.988281 191.402344 C 309.769531 189.992188 308.546875 189.117188 306.777344 189.117188 C 304.914062 189.117188 303.671875 190.019531 303.671875 191.390625 C 303.671875 192.480469 304.472656 193.101562 306.453125 193.570312 L 308.125 193.980469 C 311.242188 194.710938 312.527344 195.980469 312.527344 198.273438 C 312.527344 201.191406 310.273438 203.019531 306.671875 203.019531 C 303.304688 203.019531 301.039062 201.277344 300.875 198.546875 Z M 300.875 198.546875 " fill-opacity="1" fill-rule="nonzero"/></g></svg>