<svg xmlns="http://www.w3.org/2000/svg" xmlns:xlink="http://www.w3.org/1999/xlink" width="500" zoomAndPan="magnify" viewBox="0 0 375 374.999991" height="500" preserveAspectRatio="xMidYMid meet" version="1.0"><defs><clipPath id="1b95253d87"><path d="M 37.5 52.398438 L 331 52.398438 L 331 316 L 37.5 316 Z M 37.5 52.398438 " clip-rule="nonzero"/></clipPath></defs><path fill="#000000" d="M 50.15625 321.996094 L 50.144531 321.898438 L 50.132812 321.863281 Z M 50.15625 321.996094 " fill-opacity="1" fill-rule="nonzero"/><path fill="#41b883" d="M 46.125 61.5625 L 184.265625 299.796875 L 322.402344 61.5625 L 267.140625 61.5625 L 184.265625 204.503906 L 100.6875 61.5625 Z M 46.125 61.5625 " fill-opacity="1" fill-rule="nonzero"/><path fill="#35495e" d="M 100.6875 61.5625 L 184.265625 205.199219 L 267.15625 61.5625 L 216.035156 61.5625 L 184.265625 116.808594 L 151.792969 61.5625 Z M 100.6875 61.5625 " fill-opacity="1" fill-rule="nonzero"/><g clip-path="url(#1b95253d87)"><path fill="#000000" d="M 184.265625 315.070312 C 180.953125 315.070312 177.898438 313.285156 176.273438 310.402344 L 38.792969 66.121094 C 37.203125 63.285156 37.226562 59.804688 38.867188 56.992188 C 40.515625 54.183594 43.523438 52.460938 46.785156 52.460938 L 98.941406 52.460938 C 99.269531 52.421875 99.625 52.398438 99.980469 52.398438 L 151.804688 52.398438 C 155.09375 52.398438 158.113281 54.160156 159.75 56.992188 L 184.265625 99.605469 L 208.816406 56.992188 C 210.453125 54.160156 213.484375 52.398438 216.757812 52.398438 L 268.585938 52.398438 C 268.976562 52.398438 269.355469 52.421875 269.734375 52.472656 L 321.742188 52.472656 C 325.007812 52.472656 328.011719 54.207031 329.648438 57.003906 C 331.289062 59.816406 331.324219 63.296875 329.722656 66.132812 L 192.242188 310.402344 C 190.628906 313.285156 187.574219 315.070312 184.265625 315.070312 Z M 62.464844 70.785156 L 184.265625 287.226562 L 306.0625 70.796875 L 268.546875 70.796875 C 268.15625 70.796875 267.777344 70.773438 267.398438 70.726562 L 222.0625 70.726562 L 192.207031 122.539062 C 190.570312 125.386719 187.539062 127.132812 184.265625 127.132812 C 180.976562 127.132812 177.957031 125.371094 176.320312 122.539062 L 146.503906 70.726562 L 101.019531 70.726562 C 100.6875 70.761719 100.335938 70.785156 99.980469 70.785156 Z M 62.464844 70.785156 " fill-opacity="1" fill-rule="nonzero"/></g></svg>