<svg xmlns="http://www.w3.org/2000/svg" xmlns:xlink="http://www.w3.org/1999/xlink" width="500" zoomAndPan="magnify" viewBox="0 0 375 374.999991" height="500" preserveAspectRatio="xMidYMid meet" version="1.0"><defs><clipPath id="a8c06dbea0"><path d="M 9.847656 104 L 175 104 L 175 217 L 9.847656 217 Z M 9.847656 104 " clip-rule="nonzero"/></clipPath><clipPath id="5df9b2924c"><path d="M 9.847656 98.632812 L 149 98.632812 L 149 222.382812 L 9.847656 222.382812 Z M 9.847656 98.632812 " clip-rule="nonzero"/></clipPath></defs><path fill="#00d8ff" d="M 90.117188 160.398438 C 90.117188 161.175781 90.042969 161.949219 89.890625 162.714844 C 89.738281 163.480469 89.511719 164.222656 89.210938 164.945312 C 88.910156 165.664062 88.546875 166.347656 88.109375 166.996094 C 87.675781 167.648438 87.183594 168.246094 86.628906 168.796875 C 86.074219 169.351562 85.472656 169.84375 84.824219 170.277344 C 84.171875 170.710938 83.484375 171.074219 82.761719 171.375 C 82.039062 171.671875 81.296875 171.898438 80.527344 172.050781 C 79.761719 172.203125 78.984375 172.277344 78.203125 172.277344 C 77.421875 172.277344 76.644531 172.203125 75.878906 172.050781 C 75.113281 171.898438 74.367188 171.671875 73.644531 171.375 C 72.921875 171.074219 72.234375 170.710938 71.582031 170.277344 C 70.933594 169.84375 70.332031 169.351562 69.777344 168.796875 C 69.226562 168.246094 68.730469 167.648438 68.296875 166.996094 C 67.863281 166.347656 67.496094 165.664062 67.195312 164.945312 C 66.894531 164.222656 66.671875 163.480469 66.515625 162.714844 C 66.363281 161.949219 66.289062 161.175781 66.289062 160.398438 C 66.289062 159.617188 66.363281 158.84375 66.515625 158.078125 C 66.671875 157.3125 66.894531 156.570312 67.195312 155.851562 C 67.496094 155.128906 67.863281 154.445312 68.296875 153.796875 C 68.730469 153.148438 69.226562 152.546875 69.777344 151.996094 C 70.332031 151.445312 70.933594 150.953125 71.582031 150.519531 C 72.234375 150.085938 72.921875 149.71875 73.644531 149.421875 C 74.367188 149.121094 75.113281 148.894531 75.878906 148.746094 C 76.644531 148.59375 77.421875 148.515625 78.203125 148.515625 C 78.984375 148.515625 79.761719 148.59375 80.527344 148.746094 C 81.296875 148.894531 82.039062 149.121094 82.761719 149.421875 C 83.484375 149.71875 84.171875 150.085938 84.824219 150.519531 C 85.472656 150.953125 86.074219 151.445312 86.628906 151.996094 C 87.183594 152.546875 87.675781 153.148438 88.109375 153.796875 C 88.546875 154.445312 88.910156 155.128906 89.210938 155.851562 C 89.511719 156.570312 89.738281 157.3125 89.890625 158.078125 C 90.042969 158.84375 90.117188 159.617188 90.117188 160.398438 Z M 90.117188 160.398438 " fill-opacity="1" fill-rule="nonzero"/><g clip-path="url(#a8c06dbea0)"><path stroke-linecap="butt" transform="matrix(0.237506, 0, 0, 0.236834, 14.188535, 104.11826)" fill="none" stroke-linejoin="miter" d="M 269.528758 135.622361 C 336.879143 135.622361 399.459904 145.287611 446.646291 161.533809 C 503.487056 181.111714 538.436889 210.76721 538.436889 237.635287 C 538.436889 265.62493 501.398289 297.127709 440.347098 317.365358 C 394.19687 332.654927 333.474618 340.63783 269.528758 340.63783 C 203.971094 340.63783 141.90019 333.133242 95.223659 317.183929 C 36.178999 297.012254 0.620627 265.080641 0.620627 237.635287 C 0.620627 210.981627 33.991551 181.557041 90.04286 162.012123 C 137.393717 145.502028 201.504047 135.622361 269.528758 135.622361 Z M 269.528758 135.622361 " stroke="#00d8ff" stroke-width="24" stroke-opacity="1" stroke-miterlimit="4"/></g><g clip-path="url(#5df9b2924c)"><path stroke-linecap="butt" transform="matrix(0.237506, 0, 0, 0.236834, 14.188535, 104.11826)" fill="none" stroke-linejoin="miter" d="M 180.747958 186.917462 C 214.382033 128.579593 254.019256 79.197749 291.666394 46.441456 C 337.010719 6.972267 380.167596 -8.482238 403.423626 4.943554 C 427.682923 18.913635 436.46561 66.74508 423.488943 129.734145 C 413.702989 177.351173 390.266042 233.940721 358.326006 289.342729 C 325.563621 346.1302 288.064505 396.155294 250.94367 428.614702 C 203.954647 469.667277 158.544534 484.544506 134.7622 470.821829 C 111.687087 457.527986 102.855058 413.902409 113.923876 355.597527 C 123.282208 306.314645 146.752049 245.849101 180.731511 186.933956 Z M 180.747958 186.917462 " stroke="#00d8ff" stroke-width="24" stroke-opacity="1" stroke-miterlimit="4"/><path stroke-linecap="butt" transform="matrix(0.237506, 0, 0, 0.236834, 14.188535, 104.11826)" fill="none" stroke-linejoin="miter" d="M 180.813746 289.474678 C 147.080989 231.202783 124.104557 172.205169 114.515967 123.235666 C 102.970187 64.238052 111.127889 19.128051 134.367473 5.652779 C 158.593875 -8.366783 204.43161 7.895909 252.506133 50.597844 C 288.870407 82.875822 326.205053 131.432986 358.227324 186.76902 C 391.071944 243.50701 415.693074 300.987212 425.265216 349.346452 C 437.386641 410.570702 427.584241 457.330063 403.818354 471.085727 C 380.759687 484.445544 338.573182 470.310527 293.574244 431.58355 C 255.565272 398.876738 214.891889 348.340342 180.813746 289.474678 Z M 180.813746 289.474678 " stroke="#00d8ff" stroke-width="24" stroke-opacity="1" stroke-miterlimit="4"/></g><path fill="#00d8ff" d="M 210.460938 190.753906 L 195.859375 168.753906 C 203.238281 168.101562 209.890625 162.769531 209.890625 153.027344 C 209.890625 143.113281 202.835938 136.769531 192.9375 136.769531 L 171.203125 136.769531 L 171.203125 190.710938 L 177.933594 190.710938 L 177.933594 169.277344 L 188.722656 169.277344 L 202.511719 190.710938 Z M 192.132812 163.414062 L 177.9375 163.414062 L 177.9375 142.792969 L 192.132812 142.792969 C 198.542969 142.792969 202.917969 146.996094 202.917969 153.066406 C 202.917969 159.132812 198.539062 163.421875 192.132812 163.421875 Z M 235.523438 191.722656 C 241.9375 191.722656 247.207031 189.617188 251.101562 185.738281 L 248.179688 181.773438 C 245.09375 184.929688 240.554688 186.707031 236.09375 186.707031 C 227.660156 186.707031 222.46875 180.558594 221.980469 173.203125 L 253.691406 173.203125 L 253.691406 171.664062 C 253.691406 159.9375 246.714844 150.714844 234.871094 150.714844 C 223.675781 150.714844 215.570312 159.855469 215.570312 171.179688 C 215.570312 183.394531 223.925781 191.691406 235.523438 191.691406 Z M 247.695312 168.75 L 221.984375 168.75 C 222.308594 162.765625 226.441406 155.722656 234.796875 155.722656 C 243.722656 155.722656 247.613281 162.921875 247.695312 168.75 Z M 294.09375 190.75 L 294.09375 163.898438 C 294.09375 154.433594 287.203125 150.710938 278.925781 150.710938 C 272.515625 150.710938 267.488281 152.816406 263.273438 157.183594 L 266.113281 161.386719 C 269.597656 157.667969 273.414062 155.96875 278.117188 155.96875 C 283.792969 155.96875 288.015625 158.960938 288.015625 164.21875 L 288.015625 171.253906 C 284.851562 167.613281 280.390625 165.914062 275.035156 165.914062 C 268.382812 165.914062 261.324219 170.039062 261.324219 178.773438 C 261.324219 187.265625 268.378906 191.71875 275.035156 191.71875 C 280.308594 191.71875 284.769531 189.859375 288.015625 186.300781 L 288.015625 190.742188 Z M 277.226562 187.351562 C 271.550781 187.351562 267.570312 183.796875 267.570312 178.859375 C 267.570312 173.84375 271.550781 170.285156 277.226562 170.285156 C 281.523438 170.285156 285.660156 171.902344 288.015625 175.140625 L 288.015625 182.5 C 285.664062 185.734375 281.523438 187.355469 277.226562 187.355469 Z M 323.507812 191.722656 C 330.644531 191.722656 334.859375 188.808594 337.863281 184.929688 L 333.808594 181.210938 C 331.214844 184.6875 327.886719 186.300781 323.867188 186.300781 C 315.511719 186.300781 310.324219 179.832031 310.324219 171.179688 C 310.324219 162.527344 315.515625 156.136719 323.867188 156.136719 C 327.921875 156.136719 331.246094 157.675781 333.808594 161.230469 L 337.863281 157.511719 C 334.863281 153.628906 330.644531 150.71875 323.507812 150.71875 C 311.828125 150.71875 303.960938 159.617188 303.960938 171.183594 C 303.960938 182.828125 311.828125 191.695312 323.507812 191.695312 Z M 356.28125 191.722656 C 359.84375 191.722656 362.039062 190.667969 363.582031 189.214844 L 361.800781 184.6875 C 360.988281 185.574219 359.398438 186.300781 357.660156 186.300781 C 354.988281 186.300781 353.683594 184.199219 353.683594 181.289062 L 353.683594 157.023438 L 361.636719 157.023438 L 361.636719 151.6875 L 353.683594 151.6875 L 353.683594 141.011719 L 347.601562 141.011719 L 347.601562 151.6875 L 341.109375 151.6875 L 341.109375 157.027344 L 347.601562 157.027344 L 347.601562 182.585938 C 347.601562 188.410156 350.519531 191.726562 356.28125 191.726562 Z M 356.28125 191.722656 " fill-opacity="1" fill-rule="evenodd"/></svg>