<svg xmlns="http://www.w3.org/2000/svg" xmlns:xlink="http://www.w3.org/1999/xlink" width="500" zoomAndPan="magnify" viewBox="0 0 375 374.999991" height="500" preserveAspectRatio="xMidYMid meet" version="1.0"><defs><clipPath id="b0f430638e"><path d="M 302 173 L 357 173 L 357 234.988281 L 302 234.988281 Z M 302 173 " clip-rule="nonzero"/></clipPath><clipPath id="35e2f360ef"><path d="M 18 139.738281 L 285 139.738281 L 285 234.988281 L 18 234.988281 Z M 18 139.738281 " clip-rule="nonzero"/></clipPath><clipPath id="2a524c292f"><path d="M 89 173 L 264 173 L 264 234.988281 L 89 234.988281 Z M 89 173 " clip-rule="nonzero"/></clipPath></defs><g clip-path="url(#b0f430638e)"><path fill="#83cd29" d="M 329.207031 173.453125 C 328.382812 173.453125 327.585938 173.621094 326.878906 174.019531 L 304.5 186.902344 C 303.050781 187.734375 302.171875 189.304688 302.171875 190.976562 L 302.171875 216.695312 C 302.171875 218.363281 303.050781 219.933594 304.5 220.765625 L 310.34375 224.125 C 313.183594 225.519531 314.230469 225.496094 315.523438 225.496094 C 319.726562 225.496094 322.125 222.953125 322.125 218.535156 L 322.125 193.160156 C 322.125 192.800781 321.816406 192.542969 321.460938 192.542969 L 318.660156 192.542969 C 318.300781 192.542969 317.992188 192.808594 317.992188 193.160156 L 317.992188 218.546875 C 317.992188 220.503906 315.945312 222.476562 312.625 220.820312 L 306.550781 217.269531 C 306.335938 217.152344 306.167969 216.9375 306.167969 216.699219 L 306.167969 190.980469 C 306.167969 190.738281 306.332031 190.488281 306.550781 190.367188 L 328.878906 177.53125 C 329.089844 177.410156 329.339844 177.410156 329.546875 177.53125 L 351.875 190.367188 C 352.085938 190.492188 352.253906 190.730469 352.253906 190.980469 L 352.253906 216.699219 C 352.253906 216.945312 352.132812 217.195312 351.921875 217.316406 L 329.546875 230.152344 C 329.347656 230.265625 329.082031 230.265625 328.878906 230.152344 L 323.132812 226.742188 C 322.960938 226.640625 322.726562 226.648438 322.5625 226.742188 C 320.976562 227.636719 320.675781 227.742188 319.1875 228.257812 C 318.824219 228.382812 318.265625 228.582031 319.378906 229.207031 L 326.886719 233.617188 C 327.601562 234.027344 328.398438 234.230469 329.214844 234.230469 C 330.042969 234.230469 330.828125 234.035156 331.542969 233.617188 L 353.917969 220.777344 C 355.367188 219.9375 356.246094 218.375 356.246094 216.707031 L 356.246094 190.988281 C 356.246094 189.316406 355.367188 187.75 353.917969 186.914062 L 331.542969 174.03125 C 330.839844 173.632812 330.035156 173.464844 329.214844 173.464844 Z M 335.191406 191.828125 C 328.820312 191.828125 325.023438 194.535156 325.023438 199.027344 C 325.023438 203.898438 328.792969 205.246094 334.90625 205.847656 C 342.222656 206.5625 342.792969 207.632812 342.792969 209.070312 C 342.792969 211.558594 340.804688 212.621094 336.09375 212.621094 C 330.179688 212.621094 328.882812 211.148438 328.445312 208.210938 C 328.394531 207.894531 328.152344 207.644531 327.828125 207.644531 L 324.921875 207.644531 C 324.742188 207.648438 324.585938 207.714844 324.457031 207.839844 C 324.328125 207.96875 324.261719 208.125 324.257812 208.304688 C 324.257812 212.058594 326.308594 216.5 336.089844 216.5 C 343.167969 216.5 347.253906 213.734375 347.253906 208.875 C 347.253906 204.070312 343.953125 202.769531 337.085938 201.863281 C 330.152344 200.941406 329.484375 200.5 329.484375 198.878906 C 329.484375 197.542969 330.046875 195.753906 335.1875 195.753906 C 339.777344 195.753906 341.472656 196.738281 342.171875 199.824219 C 342.230469 200.117188 342.488281 200.351562 342.789062 200.351562 L 345.691406 200.351562 C 345.871094 200.351562 346.042969 200.242188 346.167969 200.117188 C 346.289062 199.980469 346.375 199.824219 346.359375 199.640625 C 345.910156 194.328125 342.355469 191.828125 335.195312 191.828125 Z M 335.191406 191.828125 " fill-opacity="1" fill-rule="nonzero"/></g><g clip-path="url(#35e2f360ef)"><path fill="#404137" d="M 197.652344 139.738281 C 197.398438 139.738281 197.160156 139.800781 196.9375 139.925781 C 196.464844 140.203125 196.230469 140.613281 196.226562 141.160156 L 196.226562 177.390625 C 196.226562 177.746094 196.058594 178.066406 195.75 178.242188 C 195.417969 178.4375 195.085938 178.4375 194.753906 178.242188 L 188.8125 174.832031 C 188.375 174.578125 187.898438 174.453125 187.390625 174.453125 C 186.878906 174.453125 186.40625 174.578125 185.964844 174.832031 L 162.257812 188.472656 C 161.371094 188.984375 160.832031 189.964844 160.832031 190.984375 L 160.832031 218.265625 C 160.832031 218.773438 160.957031 219.246094 161.214844 219.6875 C 161.46875 220.125 161.816406 220.472656 162.257812 220.726562 L 185.964844 234.367188 C 186.40625 234.621094 186.878906 234.75 187.390625 234.75 C 187.898438 234.75 188.375 234.621094 188.816406 234.367188 L 212.523438 220.726562 C 212.964844 220.472656 213.3125 220.125 213.566406 219.6875 C 213.820312 219.246094 213.949219 218.773438 213.949219 218.265625 L 213.949219 150.253906 C 213.949219 149.21875 213.382812 148.246094 212.476562 147.742188 L 198.363281 139.875 C 198.144531 139.753906 197.898438 139.730469 197.652344 139.734375 Z M 45.144531 173.792969 C 44.691406 173.808594 44.269531 173.886719 43.863281 174.121094 L 20.15625 187.761719 C 19.714844 188.015625 19.363281 188.363281 19.109375 188.804688 C 18.855469 189.242188 18.730469 189.71875 18.730469 190.226562 L 18.777344 226.839844 C 18.777344 227.347656 19.042969 227.820312 19.492188 228.070312 C 19.933594 228.332031 20.476562 228.332031 20.917969 228.070312 L 34.980469 220.015625 C 35.871094 219.492188 36.453125 218.570312 36.453125 217.554688 L 36.453125 200.457031 C 36.453125 199.433594 36.988281 198.5 37.878906 197.992188 L 43.863281 194.535156 C 44.304688 194.28125 44.78125 194.152344 45.289062 194.15625 C 45.800781 194.152344 46.273438 194.28125 46.714844 194.535156 L 52.699219 197.992188 C 53.585938 198.5 54.125 199.433594 54.125 200.453125 L 54.125 217.550781 C 54.125 218.570312 54.71875 219.492188 55.597656 220.011719 L 69.660156 228.066406 C 70.101562 228.328125 70.644531 228.328125 71.085938 228.066406 C 71.519531 227.816406 71.796875 227.34375 71.796875 226.835938 L 71.84375 190.222656 C 71.847656 189.714844 71.722656 189.238281 71.46875 188.800781 C 71.210938 188.359375 70.863281 188.011719 70.417969 187.761719 L 46.714844 174.125 C 46.3125 173.890625 45.886719 173.8125 45.429688 173.792969 Z M 258.175781 174.121094 C 257.667969 174.121094 257.191406 174.246094 256.75 174.503906 L 233.042969 188.144531 C 232.15625 188.652344 231.617188 189.585938 231.617188 190.605469 L 231.617188 217.886719 C 231.617188 218.910156 232.195312 219.839844 233.089844 220.347656 L 256.605469 233.710938 C 257.472656 234.203125 258.535156 234.242188 259.410156 233.757812 L 273.660156 225.847656 C 274.113281 225.597656 274.421875 225.128906 274.421875 224.617188 C 274.421875 224.101562 274.15625 223.640625 273.707031 223.382812 L 249.859375 209.742188 C 249.410156 209.488281 249.097656 208.976562 249.097656 208.464844 L 249.097656 199.933594 C 249.097656 199.425781 249.414062 198.957031 249.859375 198.703125 L 257.269531 194.441406 C 257.710938 194.1875 258.25 194.1875 258.695312 194.441406 L 266.125 198.703125 C 266.601562 198.976562 266.835938 199.386719 266.835938 199.933594 L 266.835938 206.660156 C 266.835938 207.207031 267.074219 207.617188 267.546875 207.890625 C 267.992188 208.144531 268.53125 208.148438 268.976562 207.890625 L 283.179688 199.648438 C 284.058594 199.136719 284.605469 198.203125 284.605469 197.1875 L 284.605469 190.605469 C 284.605469 190.097656 284.476562 189.621094 284.222656 189.183594 C 283.96875 188.742188 283.621094 188.394531 283.179688 188.140625 L 259.613281 174.5 C 259.171875 174.246094 258.699219 174.121094 258.1875 174.121094 Z M 187.289062 194.488281 C 187.425781 194.488281 187.550781 194.519531 187.671875 194.585938 L 195.796875 199.273438 C 196.015625 199.398438 196.175781 199.636719 196.175781 199.886719 L 196.175781 209.265625 C 196.175781 209.519531 196.015625 209.753906 195.796875 209.882812 L 187.671875 214.570312 C 187.449219 214.695312 187.179688 214.695312 186.957031 214.570312 L 178.835938 209.882812 C 178.613281 209.753906 178.453125 209.519531 178.453125 209.265625 L 178.453125 199.890625 C 178.453125 199.636719 178.613281 199.402344 178.835938 199.277344 L 186.957031 194.585938 C 187.070312 194.523438 187.167969 194.492188 187.289062 194.492188 Z M 187.289062 194.488281 " fill-opacity="1" fill-rule="nonzero"/></g><g clip-path="url(#2a524c292f)"><path fill="#83cd29" d="M 116.359375 173.980469 C 115.851562 173.980469 115.375 174.105469 114.933594 174.359375 L 91.226562 187.953125 C 90.339844 188.460938 89.800781 189.445312 89.800781 190.460938 L 89.800781 217.742188 C 89.800781 218.25 89.925781 218.726562 90.179688 219.164062 C 90.4375 219.605469 90.785156 219.953125 91.226562 220.207031 L 114.933594 233.847656 C 115.375 234.101562 115.847656 234.226562 116.359375 234.226562 C 116.867188 234.226562 117.34375 234.101562 117.785156 233.847656 L 141.492188 220.207031 C 141.933594 219.953125 142.28125 219.605469 142.535156 219.164062 C 142.789062 218.726562 142.917969 218.25 142.917969 217.742188 L 142.917969 190.464844 C 142.917969 189.445312 142.378906 188.460938 141.492188 187.953125 L 117.785156 174.359375 C 117.34375 174.105469 116.867188 173.980469 116.355469 173.980469 Z M 258.128906 198.324219 C 258.035156 198.324219 257.929688 198.324219 257.84375 198.371094 L 253.285156 201.023438 C 253.097656 201.128906 253.003906 201.285156 253 201.496094 L 253 206.707031 C 253 206.902344 253.113281 207.082031 253.285156 207.179688 L 257.84375 209.785156 C 258.019531 209.894531 258.191406 209.894531 258.367188 209.785156 L 262.925781 207.179688 C 263.09375 207.085938 263.210938 206.902344 263.210938 206.707031 L 263.210938 201.496094 C 263.210938 201.300781 263.097656 201.121094 262.925781 201.023438 L 258.367188 198.371094 C 258.28125 198.320312 258.222656 198.324219 258.128906 198.324219 Z M 258.128906 198.324219 " fill-opacity="1" fill-rule="nonzero"/></g></svg>