<svg xmlns="http://www.w3.org/2000/svg" xmlns:xlink="http://www.w3.org/1999/xlink" width="500" zoomAndPan="magnify" viewBox="0 0 375 374.999991" height="500" preserveAspectRatio="xMidYMid meet" version="1.0"><defs><clipPath id="3c128dea1e"><path d="M 42 24 L 328 24 L 328 351.921875 L 42 351.921875 Z M 42 24 " clip-rule="nonzero"/></clipPath></defs><path fill="#ffe577" d="M 284.785156 78.367188 C 313.6875 109.527344 337.449219 297.644531 273.425781 308.289062 C 211.105469 318.648438 60.609375 344.097656 59.234375 255.703125 C 57.859375 167.308594 38.382812 83.738281 119.515625 67.75 C 176.367188 56.542969 255.28125 46.566406 284.785156 78.367188 Z M 284.785156 78.367188 " fill-opacity="1" fill-rule="nonzero"/><path fill="#000000" d="M 113.109375 308.058594 C 107.898438 308.058594 102.675781 306.722656 97.902344 304.050781 L 90.613281 299.976562 C 87.335938 298.148438 86.152344 294.003906 87.988281 290.707031 C 89.808594 287.394531 93.957031 286.25 97.234375 288.074219 L 104.527344 292.152344 C 110.019531 295.21875 116.578125 295.175781 122.042969 291.945312 C 127.484375 288.742188 130.75 283.046875 130.75 276.707031 L 130.75 127.015625 C 130.75 123.253906 133.796875 120.199219 137.550781 120.199219 C 141.304688 120.199219 144.351562 123.253906 144.351562 127.015625 L 144.351562 276.695312 C 144.351562 287.910156 138.582031 298 128.925781 303.683594 C 124.003906 306.613281 118.5625 308.058594 113.109375 308.058594 Z M 113.109375 308.058594 " fill-opacity="1" fill-rule="nonzero"/><g clip-path="url(#3c128dea1e)"><path fill="#000000" d="M 185.183594 351.90625 C 181.46875 351.90625 177.726562 350.941406 174.421875 348.992188 L 140.894531 329.390625 C 137.660156 327.496094 136.558594 323.324219 138.449219 320.066406 C 140.339844 316.808594 144.5 315.691406 147.75 317.613281 L 181.277344 337.214844 C 183.714844 338.632812 186.625 338.660156 189.070312 337.214844 L 310.421875 266.253906 C 312.84375 264.835938 314.351562 262.148438 314.367188 259.289062 L 314.367188 117.378906 C 314.367188 114.515625 312.84375 111.84375 310.394531 110.398438 L 189.085938 39.464844 C 186.664062 38.046875 183.699219 38.046875 181.304688 39.464844 L 59.859375 110.414062 C 57.4375 111.84375 55.929688 114.5 55.941406 117.363281 L 55.941406 259.289062 C 55.941406 262.164062 57.4375 264.808594 59.875 266.238281 L 97.371094 288.15625 C 100.609375 290.050781 101.710938 294.222656 99.820312 297.480469 C 97.929688 300.738281 93.753906 301.84375 90.515625 299.933594 L 53.019531 278.015625 C 46.433594 274.171875 42.339844 267.003906 42.339844 259.289062 L 42.339844 117.378906 C 42.328125 109.691406 46.40625 102.507812 53.003906 98.648438 L 174.410156 27.714844 C 181.046875 23.804688 189.316406 23.832031 195.925781 27.6875 L 317.265625 98.636719 C 323.875 102.519531 327.96875 109.691406 327.96875 117.378906 L 327.96875 259.316406 C 327.953125 266.976562 323.859375 274.144531 317.304688 278.015625 L 195.925781 348.992188 C 192.621094 350.941406 188.894531 351.90625 185.183594 351.90625 Z M 185.183594 351.90625 " fill-opacity="1" fill-rule="nonzero"/></g><path fill="#000000" d="M 219.15625 256.507812 C 189.5625 256.507812 157.953125 246.652344 157.953125 219.023438 C 157.953125 215.261719 161 212.207031 164.753906 212.207031 C 168.507812 212.207031 171.554688 215.261719 171.554688 219.023438 C 171.554688 242.207031 214.289062 242.875 219.15625 242.875 C 245.203125 242.875 266.761719 241.078125 266.761719 219.023438 C 266.761719 207.816406 255.460938 204.015625 227.699219 197.417969 L 217.527344 194.964844 C 214.398438 194.171875 211.039062 193.449219 207.609375 192.6875 C 185.480469 187.820312 157.953125 181.753906 157.953125 157.683594 C 157.953125 130.054688 189.5625 120.199219 219.15625 120.199219 C 248.753906 120.199219 280.363281 130.054688 280.363281 157.683594 C 280.363281 161.445312 277.316406 164.5 273.5625 164.5 C 269.808594 164.5 266.761719 161.445312 266.761719 157.683594 C 266.761719 134.5 224.027344 133.832031 219.15625 133.832031 C 214.289062 133.832031 171.554688 134.5 171.554688 157.683594 C 171.554688 169.828125 188.445312 174.519531 210.519531 179.382812 C 214.085938 180.175781 217.539062 180.925781 220.789062 181.742188 L 230.828125 184.167969 C 257.40625 190.464844 280.363281 195.933594 280.363281 219.023438 C 280.363281 256.507812 240.539062 256.507812 219.15625 256.507812 Z M 219.15625 256.507812 " fill-opacity="1" fill-rule="nonzero"/></svg>