<svg xmlns="http://www.w3.org/2000/svg" xmlns:xlink="http://www.w3.org/1999/xlink" width="500" zoomAndPan="magnify" viewBox="0 0 375 374.999991" height="500" preserveAspectRatio="xMidYMid meet" version="1.0"><defs><clipPath id="5be024c5f5"><path d="M 112.5 112.5 L 262.5 112.5 L 262.5 262.5 L 112.5 262.5 Z M 112.5 112.5 " clip-rule="nonzero"/></clipPath></defs><g clip-path="url(#5be024c5f5)"><path fill="#543b79" d="M 250 112.5 L 125 112.5 C 118.101562 112.5 112.5 118.09375 112.5 125 L 112.5 250 C 112.5 256.90625 118.101562 262.5 125 262.5 L 250 262.5 C 256.898438 262.5 262.5 256.90625 262.5 250 L 262.5 125 C 262.5 118.09375 256.898438 112.5 250 112.5 Z M 223.832031 217.832031 L 223.832031 217.84375 C 222.582031 220.855469 220.601562 223.511719 218.0625 225.554688 C 215.4375 227.679688 212.113281 229.429688 208.019531 230.679688 C 203.929688 231.949219 199.070312 232.585938 193.4375 232.585938 L 153.238281 232.585938 L 153.238281 145.085938 L 195.75 145.085938 C 203.613281 145.085938 209.914062 146.855469 214.625 150.460938 C 219.375 154.085938 221.738281 159.488281 221.738281 166.773438 C 221.738281 171.179688 220.664062 174.960938 218.5 178.085938 C 216.351562 181.195312 213.25 183.625 209.25 185.3125 L 209.25 185.601562 C 214.585938 186.726562 218.71875 189.257812 221.4375 193.195312 C 224.15625 197.132812 225.550781 202.105469 225.550781 208.113281 C 225.550781 211.476562 224.898438 214.675781 223.675781 217.664062 Z M 223.832031 217.832031 " fill-opacity="1" fill-rule="nonzero"/></g><path fill="#543b79" d="M 206.480469 196.28125 C 203.917969 193.9375 200.320312 192.792969 195.667969 192.792969 L 168.65625 192.792969 L 168.65625 220.09375 L 195.742188 220.09375 C 200.367188 220.09375 203.992188 218.894531 206.554688 216.46875 C 209.117188 214.0625 210.429688 210.632812 210.429688 206.21875 C 210.386719 201.90625 209.117188 198.570312 206.554688 196.28125 Z M 206.480469 196.28125 " fill-opacity="1" fill-rule="nonzero"/><path fill="#543b79" d="M 202.707031 178.636719 L 202.730469 178.636719 C 205.207031 176.539062 206.417969 173.53125 206.417969 169.613281 C 206.417969 165.210938 205.324219 162.085938 203.105469 160.300781 C 200.90625 158.519531 197.730469 157.59375 193.554688 157.59375 L 168.554688 157.59375 L 168.554688 181.738281 L 193.554688 181.738281 C 197.199219 181.738281 200.304688 180.675781 202.707031 178.636719 Z M 202.707031 178.636719 " fill-opacity="1" fill-rule="nonzero"/></svg>