<svg xmlns="http://www.w3.org/2000/svg" xmlns:xlink="http://www.w3.org/1999/xlink" width="500" zoomAndPan="magnify" viewBox="0 0 375 374.999991" height="500" preserveAspectRatio="xMidYMid meet" version="1.0"><defs><clipPath id="1a248ef502"><path d="M 118.6875 112.5 L 256.6875 112.5 L 256.6875 262.5 L 118.6875 262.5 Z M 118.6875 112.5 " clip-rule="nonzero"/></clipPath></defs><g clip-path="url(#1a248ef502)"><path fill="#2196f3" d="M 255.816406 113.523438 C 255.195312 112.839844 254.417969 112.5 253.492188 112.5 L 121.882812 112.5 C 121.664062 112.5 121.445312 112.519531 121.230469 112.566406 C 121.015625 112.609375 120.808594 112.675781 120.609375 112.765625 C 120.40625 112.851562 120.214844 112.960938 120.039062 113.089844 C 119.859375 113.214844 119.695312 113.359375 119.550781 113.523438 C 119.402344 113.683594 119.273438 113.859375 119.160156 114.050781 C 119.050781 114.238281 118.960938 114.4375 118.890625 114.644531 C 118.824219 114.851562 118.777344 115.066406 118.753906 115.285156 C 118.730469 115.5 118.726562 115.71875 118.75 115.9375 L 131.285156 240.9375 C 131.34375 241.550781 131.566406 242.097656 131.953125 242.578125 C 132.335938 243.058594 132.824219 243.398438 133.410156 243.59375 L 189.8125 262.34375 C 190.140625 262.449219 190.476562 262.5 190.820312 262.5 C 191.199219 262.5 191.570312 262.433594 191.925781 262.300781 L 242.058594 243.550781 C 242.621094 243.34375 243.085938 243.003906 243.449219 242.535156 C 243.816406 242.0625 244.03125 241.53125 244.089844 240.9375 L 256.625 115.9375 C 256.714844 115.011719 256.445312 114.210938 255.816406 113.523438 Z M 255.816406 113.523438 " fill-opacity="1" fill-rule="nonzero"/></g><path fill="#fafafa" d="M 190.820312 231.25 C 190.484375 231.25 190.152344 231.199219 189.832031 231.09375 L 161.628906 221.71875 C 161.097656 221.542969 160.644531 221.246094 160.273438 220.824219 C 159.902344 220.40625 159.660156 219.921875 159.546875 219.375 L 156.414062 203.75 C 156.332031 203.34375 156.328125 202.9375 156.410156 202.53125 C 156.488281 202.125 156.640625 201.746094 156.871094 201.402344 C 157.101562 201.054688 157.386719 200.765625 157.730469 200.535156 C 158.074219 200.300781 158.453125 200.144531 158.859375 200.0625 C 159.265625 199.980469 159.675781 199.976562 160.082031 200.054688 C 160.488281 200.132812 160.867188 200.289062 161.214844 200.515625 C 161.5625 200.746094 161.851562 201.03125 162.082031 201.375 C 162.316406 201.71875 162.472656 202.09375 162.558594 202.5 L 165.332031 216.34375 L 190.757812 224.8125 L 213.105469 216.457031 L 224.699219 150 L 153.21875 150 C 152.804688 150 152.402344 149.921875 152.019531 149.761719 C 151.636719 149.605469 151.296875 149.378906 151.003906 149.085938 C 150.710938 148.792969 150.484375 148.453125 150.324219 148.070312 C 150.164062 147.6875 150.085938 147.289062 150.085938 146.875 C 150.085938 146.460938 150.164062 146.0625 150.324219 145.679688 C 150.484375 145.296875 150.710938 144.957031 151.003906 144.664062 C 151.296875 144.371094 151.636719 144.144531 152.019531 143.988281 C 152.402344 143.828125 152.804688 143.75 153.21875 143.75 L 228.421875 143.75 C 228.652344 143.75 228.878906 143.773438 229.101562 143.824219 C 229.324219 143.871094 229.539062 143.945312 229.746094 144.042969 C 229.953125 144.136719 230.148438 144.253906 230.332031 144.394531 C 230.511719 144.53125 230.675781 144.6875 230.824219 144.863281 C 230.972656 145.039062 231.097656 145.226562 231.203125 145.429688 C 231.308594 145.628906 231.390625 145.839844 231.453125 146.0625 C 231.511719 146.28125 231.546875 146.507812 231.554688 146.734375 C 231.566406 146.960938 231.550781 147.1875 231.511719 147.414062 L 218.980469 219.289062 C 218.882812 219.832031 218.65625 220.320312 218.304688 220.746094 C 217.949219 221.171875 217.511719 221.480469 216.992188 221.675781 L 191.925781 231.050781 C 191.570312 231.183594 191.199219 231.25 190.820312 231.25 Z M 190.820312 231.25 " fill-opacity="1" fill-rule="nonzero"/><path fill="#fafafa" d="M 222.15625 181.25 L 156.351562 181.25 C 155.9375 181.25 155.535156 181.171875 155.152344 181.011719 C 154.769531 180.855469 154.429688 180.628906 154.136719 180.335938 C 153.84375 180.042969 153.617188 179.703125 153.457031 179.320312 C 153.296875 178.9375 153.21875 178.539062 153.21875 178.125 C 153.21875 177.710938 153.296875 177.3125 153.457031 176.929688 C 153.617188 176.546875 153.84375 176.207031 154.136719 175.914062 C 154.429688 175.621094 154.769531 175.394531 155.152344 175.238281 C 155.535156 175.078125 155.9375 175 156.351562 175 L 222.15625 175 C 222.570312 175 222.972656 175.078125 223.355469 175.238281 C 223.738281 175.394531 224.078125 175.621094 224.371094 175.914062 C 224.664062 176.207031 224.890625 176.546875 225.050781 176.929688 C 225.210938 177.3125 225.289062 177.710938 225.289062 178.125 C 225.289062 178.539062 225.210938 178.9375 225.050781 179.320312 C 224.890625 179.703125 224.664062 180.042969 224.371094 180.335938 C 224.078125 180.628906 223.738281 180.855469 223.355469 181.011719 C 222.972656 181.171875 222.570312 181.25 222.15625 181.25 Z M 222.15625 181.25 " fill-opacity="1" fill-rule="nonzero"/></svg>